<svg xmlns="http://www.w3.org/2000/svg" fill="none" viewBox="0 0 10 10" id="Paint-Palette--Streamline-Micro">
  <desc>
    Paint Palette Streamline Icon: https://streamlinehq.com
  </desc>
  <path stroke="currentColor" stroke-linecap="round" stroke-linejoin="round" d="M5.45654 3.73975c0.47611 0 0.86206 -0.38596 0.86206 -0.86206 0 -0.47611 -0.38595 -0.86207 -0.86206 -0.86207 -0.4761 0 -0.86206 0.38596 -0.86206 0.86207 0 0.4761 0.38596 0.86206 0.86206 0.86206Z" stroke-width="1"></path>
  <path stroke="currentColor" stroke-linecap="round" stroke-linejoin="round" d="M3.14014 5.79956c0.4761 0 0.86206 -0.38596 0.86206 -0.86206s-0.38596 -0.86206 -0.86206 -0.86206c-0.47611 0 -0.86206 0.38596 -0.86206 0.86206s0.38595 0.86206 0.86206 0.86206Z" stroke-width="1"></path>
  <path stroke="currentColor" stroke-linecap="round" stroke-linejoin="round" d="M3.6604 7.42285c-0.06904 0 -0.125 -0.05596 -0.125 -0.125 0 -0.06903 0.05596 -0.125 0.125 -0.125" stroke-width="1"></path>
  <path stroke="currentColor" stroke-linecap="round" stroke-linejoin="round" d="M3.6604 7.42285c0.06904 0 0.125 -0.05596 0.125 -0.125 0 -0.06903 -0.05596 -0.125 -0.125 -0.125" stroke-width="1"></path>
  <path stroke="currentColor" stroke-linecap="round" stroke-linejoin="round" d="M6.74169 8.65537c-0.00771 -0.13429 -0.05438 -0.26342 -0.13429 -0.37161 -0.07992 -0.10819 -0.18962 -0.19076 -0.31571 -0.23762 -0.31312 -0.10292 -0.57927 -0.31416 -0.75057 -0.59575 -0.17131 -0.28159 -0.23655 -0.61506 -0.18399 -0.94044 0.05256 -0.32539 0.21948 -0.62136 0.47074 -0.83468 0.25125 -0.21333 0.57037 -0.33003 0.89998 -0.32912h1.29461c0.22204 0.00061 0.44098 -0.05218 0.63834 -0.15393 0.19736 -0.10175 0.36735 -0.24947 0.49564 -0.4307 0.12829 -0.18124 0.21111 -0.39067 0.24148 -0.61062 0.03036 -0.21996 0.00739 -0.444 -0.067 -0.65321 -0.27536 -0.77748 -0.7591 -1.46433 -1.39838 -1.9855C7.29326 0.991012 6.52303 0.655564 5.70602 0.54249 4.889 0.429416 4.05663 0.543065 3.29983 0.871021c-0.7568 0.327959 -1.40891 0.857599 -1.88508 1.531079 -0.476165 0.67347 -0.758077 1.46485 -0.814933 2.2877 -0.056856 0.82284 0.113531 1.64548 0.492543 2.37804 0.37902 0.73256 0.95208 1.34686 1.65658 1.77579 0.7045 0.42893 1.51334 0.65598 2.33814 0.65635 0.40733 0.00114 0.81281 -0.05479 1.20461 -0.16615 0.14391 -0.04032 0.26853 -0.13103 0.35114 -0.25557 0.0826 -0.12455 0.11769 -0.27463 0.09886 -0.42289v0Z" stroke-width="1"></path>
</svg>