<svg xmlns="http://www.w3.org/2000/svg" viewBox="0 0 24 24" id="Layout-Column--Streamline-Ultimate">
  <desc>
    Layout Column Streamline Icon: https://streamlinehq.com
  </desc>
  <defs></defs>
  <title>layout-column</title>
  <path d="M2.25 0.747h1.5s1.5 0 1.5 1.5v19.5s0 1.5 -1.5 1.5h-1.5s-1.5 0 -1.5 -1.5v-19.5s0 -1.5 1.5 -1.5" fill="none" stroke="currentColor" stroke-linecap="round" stroke-linejoin="round" stroke-width="1.5"></path>
  <path d="M11.251 0.747h1.5s1.5 0 1.5 1.5v19.5s0 1.5 -1.5 1.5h-1.5s-1.5 0 -1.5 -1.5v-19.5s0 -1.5 1.5 -1.5" fill="none" stroke="currentColor" stroke-linecap="round" stroke-linejoin="round" stroke-width="1.5"></path>
  <path d="M20.25 0.747h1.5s1.5 0 1.5 1.5v19.5s0 1.5 -1.5 1.5h-1.5s-1.5 0 -1.5 -1.5v-19.5s0 -1.5 1.5 -1.5" fill="none" stroke="currentColor" stroke-linecap="round" stroke-linejoin="round" stroke-width="1.5"></path>
</svg>