<svg xmlns="http://www.w3.org/2000/svg" viewBox="0 0 24 24" id="Coding-Apps-Website-Web-Form-Profile-Picture-Attachment-Male--Streamline-Ultimate">
  <desc>
    Coding Apps Website Web Form Profile Picture Attachment Male Streamline Icon: https://streamlinehq.com
  </desc>
  <defs></defs>
  <path d="M7.131 6.875a2.625 2.625 0 1 0 5.25 0 2.625 2.625 0 1 0 -5.25 0" fill="none" stroke="currentColor" stroke-linecap="round" stroke-linejoin="round" stroke-width="1.5"></path>
  <path d="M10.006 14.75h-4.75a4.5 4.5 0 0 1 7.75 -3.112" fill="none" stroke="currentColor" stroke-linecap="round" stroke-linejoin="round" stroke-width="1.5"></path>
  <path d="M7.49 18.75H3.756a3 3 0 0 1 -3 -3v-12a3 3 0 0 1 3 -3h12a3 3 0 0 1 3 3v4.5" fill="none" stroke="currentColor" stroke-linecap="round" stroke-linejoin="round" stroke-width="1.5"></path>
  <path d="m13.718 19.227 3.822 -3.822a1.423 1.423 0 0 1 2.012 2.012l-4.44 4.439a2.845 2.845 0 0 1 -4.023 -4.023l4.871 -4.87A4.267 4.267 0 0 1 21.994 19l-4.253 4.25" fill="none" stroke="currentColor" stroke-linecap="round" stroke-linejoin="round" stroke-width="1.5"></path>
</svg>