<svg xmlns="http://www.w3.org/2000/svg" fill="none" viewBox="0 0 24 24" id="Photo-Vignette-1--Streamline-Ultimate">
  <desc>
    Photo Vignette 1 Streamline Icon: https://streamlinehq.com
  </desc>
  <path stroke="currentColor" stroke-linecap="round" stroke-linejoin="round" d="M12 23c6.0751 0 11 -4.9249 11 -11 0 -6.07513 -4.9249 -11 -11 -11C5.92487 1 1 5.92487 1 12c0 6.0751 4.92487 11 11 11Z" stroke-width="1.5"></path>
  <path stroke="currentColor" d="M12 4.5c-0.2761 0 -0.5 -0.22386 -0.5 -0.5s0.2239 -0.5 0.5 -0.5" stroke-width="1.5"></path>
  <path stroke="currentColor" d="M12 4.5c0.2761 0 0.5 -0.22386 0.5 -0.5s-0.2239 -0.5 -0.5 -0.5" stroke-width="1.5"></path>
  <path stroke="currentColor" d="M8.5 7c-0.27614 0 -0.5 -0.22386 -0.5 -0.5s0.22386 -0.5 0.5 -0.5" stroke-width="1.5"></path>
  <path stroke="currentColor" d="M8.5 7c0.27614 0 0.5 -0.22386 0.5 -0.5S8.77614 6 8.5 6" stroke-width="1.5"></path>
  <path stroke="currentColor" d="M15.5 7c-0.2761 0 -0.5 -0.22386 -0.5 -0.5s0.2239 -0.5 0.5 -0.5" stroke-width="1.5"></path>
  <path stroke="currentColor" d="M15.5 7c0.2761 0 0.5 -0.22386 0.5 -0.5s-0.2239 -0.5 -0.5 -0.5" stroke-width="1.5"></path>
  <path stroke="currentColor" d="M15.5 12.5c-0.2761 0 -0.5 -0.2239 -0.5 -0.5s0.2239 -0.5 0.5 -0.5" stroke-width="1.5"></path>
  <path stroke="currentColor" d="M15.5 12.5c0.2761 0 0.5 -0.2239 0.5 -0.5s-0.2239 -0.5 -0.5 -0.5" stroke-width="1.5"></path>
  <path stroke="currentColor" d="M15.5 18c-0.2761 0 -0.5 -0.2239 -0.5 -0.5s0.2239 -0.5 0.5 -0.5" stroke-width="1.5"></path>
  <path stroke="currentColor" d="M15.5 18c0.2761 0 0.5 -0.2239 0.5 -0.5s-0.2239 -0.5 -0.5 -0.5" stroke-width="1.5"></path>
  <path stroke="currentColor" d="M8.5 18c-0.27614 0 -0.5 -0.2239 -0.5 -0.5s0.22386 -0.5 0.5 -0.5" stroke-width="1.5"></path>
  <path stroke="currentColor" d="M8.5 18c0.27614 0 0.5 -0.2239 0.5 -0.5s-0.22386 -0.5 -0.5 -0.5" stroke-width="1.5"></path>
  <path stroke="currentColor" d="M8.5 12.5c-0.27614 0 -0.5 -0.2239 -0.5 -0.5s0.22386 -0.5 0.5 -0.5" stroke-width="1.5"></path>
  <path stroke="currentColor" d="M8.5 12.5c0.27614 0 0.5 -0.2239 0.5 -0.5s-0.22386 -0.5 -0.5 -0.5" stroke-width="1.5"></path>
  <g>
    <path stroke="currentColor" d="M12 9.75c-0.2761 0 -0.5 -0.22386 -0.5 -0.5s0.2239 -0.5 0.5 -0.5" stroke-width="1.5"></path>
    <path stroke="currentColor" d="M12 9.75c0.2761 0 0.5 -0.22386 0.5 -0.5s-0.2239 -0.5 -0.5 -0.5" stroke-width="1.5"></path>
  </g>
  <g>
    <path stroke="currentColor" d="M19 9.75c-0.2761 0 -0.5 -0.22386 -0.5 -0.5s0.2239 -0.5 0.5 -0.5" stroke-width="1.5"></path>
    <path stroke="currentColor" d="M19 9.75c0.2761 0 0.5 -0.22386 0.5 -0.5s-0.2239 -0.5 -0.5 -0.5" stroke-width="1.5"></path>
  </g>
  <g>
    <path stroke="currentColor" d="M5 9.75c-0.27614 0 -0.5 -0.22386 -0.5 -0.5s0.22386 -0.5 0.5 -0.5" stroke-width="1.5"></path>
    <path stroke="currentColor" d="M5 9.75c0.27614 0 0.5 -0.22386 0.5 -0.5s-0.22386 -0.5 -0.5 -0.5" stroke-width="1.5"></path>
  </g>
  <g>
    <path stroke="currentColor" d="M12 15.5c-0.2761 0 -0.5 -0.2239 -0.5 -0.5s0.2239 -0.5 0.5 -0.5" stroke-width="1.5"></path>
    <path stroke="currentColor" d="M12 15.5c0.2761 0 0.5 -0.2239 0.5 -0.5s-0.2239 -0.5 -0.5 -0.5" stroke-width="1.5"></path>
  </g>
  <g>
    <path stroke="currentColor" d="M5 15.5c-0.27614 0 -0.5 -0.2239 -0.5 -0.5s0.22386 -0.5 0.5 -0.5" stroke-width="1.5"></path>
    <path stroke="currentColor" d="M5 15.5c0.27614 0 0.5 -0.2239 0.5 -0.5s-0.22386 -0.5 -0.5 -0.5" stroke-width="1.5"></path>
  </g>
  <g>
    <path stroke="currentColor" d="M19 15.5c-0.2761 0 -0.5 -0.2239 -0.5 -0.5s0.2239 -0.5 0.5 -0.5" stroke-width="1.5"></path>
    <path stroke="currentColor" d="M19 15.5c0.2761 0 0.5 -0.2239 0.5 -0.5s-0.2239 -0.5 -0.5 -0.5" stroke-width="1.5"></path>
  </g>
  <g>
    <path stroke="currentColor" d="M12 20.5c-0.2761 0 -0.5 -0.2239 -0.5 -0.5s0.2239 -0.5 0.5 -0.5" stroke-width="1.5"></path>
    <path stroke="currentColor" d="M12 20.5c0.2761 0 0.5 -0.2239 0.5 -0.5s-0.2239 -0.5 -0.5 -0.5" stroke-width="1.5"></path>
  </g>
</svg>