<svg xmlns="http://www.w3.org/2000/svg" style="display: none;">
  <!-- PDF Icon -->
  <symbol id="icon-pdf" viewBox="0 0 24 24">
    <path d="m4.499 19.498 0 -7.5" fill="none" stroke="currentColor" stroke-linecap="round" stroke-linejoin="round" stroke-width="1.5"></path>
    <path d="M4.5 12h0.75a2.25 2.25 0 0 1 0 4.5H4.5" fill="none" stroke="currentColor" stroke-linecap="round" stroke-linejoin="round" stroke-width="1.5"></path>
    <path d="M10.5 19.5a3 3 0 0 0 3 -3V15a3 3 0 0 0 -3 -3Z" fill="none" stroke="currentColor" stroke-linecap="round" stroke-linejoin="round" stroke-width="1.5"></path>
    <path d="M16.5 19.5v-6A1.5 1.5 0 0 1 18 12h1.5" fill="none" stroke="currentColor" stroke-linecap="round" stroke-linejoin="round" stroke-width="1.5"></path>
    <path d="m16.499 16.498 2.25 0" fill="none" stroke="currentColor" stroke-linecap="round" stroke-linejoin="round" stroke-width="1.5"></path>
    <path d="M22.809 5.559a1.5 1.5 0 0 1 0.44 1.06V21A2.25 2.25 0 0 1 21 23.248H3A2.25 2.25 0 0 1 0.749 21V3A2.25 2.25 0 0 1 3 0.748h14.377a1.5 1.5 0 0 1 1.061 0.439Z" fill="none" stroke="currentColor" stroke-linecap="round" stroke-linejoin="round" stroke-width="1.5"></path>
    <path d="M17.249 0.748v4.5a1.5 1.5 0 0 0 1.5 1.5h4.5" fill="none" stroke="currentColor" stroke-linecap="round" stroke-linejoin="round" stroke-width="1.5"></path>
  </symbol>

  <!-- Download Icon -->
  <symbol id="icon-download" viewBox="0 0 24 24">
    <path d="M8.25 14.25 12 18l3.75 -3.75" fill="none" stroke="currentColor" stroke-linecap="round" stroke-linejoin="round" stroke-width="1.5"></path>
    <path d="M12 6.75 12 18" fill="none" stroke="currentColor" stroke-linecap="round" stroke-linejoin="round" stroke-width="1.5"></path>
    <path d="M0.75 12a11.25 11.25 0 1 0 22.5 0 11.25 11.25 0 1 0 -22.5 0Z" fill="none" stroke="currentColor" stroke-linecap="round" stroke-linejoin="round" stroke-width="1.5"></path>
  </symbol>

  <!-- Light Mode Icon -->
  <symbol id="icon-light" viewBox="0 0 24 24">
    <path d="M5.25 12a6.75 6.75 0 1 0 13.5 0 6.75 6.75 0 1 0 -13.5 0Z" fill="none" stroke="currentColor" stroke-linecap="round" stroke-linejoin="round" stroke-width="1.5"></path>
    <path d="m12 2.25 0 -1.5" fill="none" stroke="currentColor" stroke-linecap="round" stroke-linejoin="round" stroke-width="1.5"></path>
    <path d="m18.894 5.106 1.061 -1.061" fill="none" stroke="currentColor" stroke-linecap="round" stroke-linejoin="round" stroke-width="1.5"></path>
    <path d="m21.75 12 1.5 0" fill="none" stroke="currentColor" stroke-linecap="round" stroke-linejoin="round" stroke-width="1.5"></path>
    <path d="m18.894 18.894 1.061 1.061" fill="none" stroke="currentColor" stroke-linecap="round" stroke-linejoin="round" stroke-width="1.5"></path>
    <path d="m12 21.75 0 1.5" fill="none" stroke="currentColor" stroke-linecap="round" stroke-linejoin="round" stroke-width="1.5"></path>
    <path d="m5.106 18.894 -1.061 1.061" fill="none" stroke="currentColor" stroke-linecap="round" stroke-linejoin="round" stroke-width="1.5"></path>
    <path d="m2.25 12 -1.5 0" fill="none" stroke="currentColor" stroke-linecap="round" stroke-linejoin="round" stroke-width="1.5"></path>
    <path d="M5.106 5.106 4.045 4.045" fill="none" stroke="currentColor" stroke-linecap="round" stroke-linejoin="round" stroke-width="1.5"></path>
  </symbol>

  <!-- Dark Mode Icon -->
  <symbol id="icon-dark" viewBox="0 0 24 24">
    <path d="M13.266 2.253a9.75 9.75 0 1 1 -0.643 19.458" fill="none" stroke="currentColor" stroke-linecap="round" stroke-linejoin="round" stroke-width="1.5"></path>
    <path d="M0.75 12a7.5 7.5 0 1 0 15 0 7.5 7.5 0 1 0 -15 0Z" fill="none" stroke="currentColor" stroke-linecap="round" stroke-linejoin="round" stroke-width="1.5"></path>
    <path d="M9.311 4.575 0.825 13.061" fill="none" stroke="currentColor" stroke-linecap="round" stroke-linejoin="round" stroke-width="1.5"></path>
    <path d="M13.553 6.697 2.947 17.303" fill="none" stroke="currentColor" stroke-linecap="round" stroke-linejoin="round" stroke-width="1.5"></path>
    <path d="m15.675 10.939 -8.486 8.486" fill="none" stroke="currentColor" stroke-linecap="round" stroke-linejoin="round" stroke-width="1.5"></path>
  </symbol>

  <!-- System Mode Icon -->
  <symbol id="icon-system" viewBox="0 0 24 24">
    <path d="M5.5 12a6.5 6.5 0 1 0 13 0 6.5 6.5 0 1 0 -13 0" fill="none" stroke="currentColor" stroke-linecap="round" stroke-linejoin="round" stroke-width="1.5"></path>
    <path d="M12 2.93 12 1" fill="none" stroke="currentColor" stroke-linecap="round" stroke-linejoin="round" stroke-width="1.5"></path>
    <path d="m12 23 0 -1.93" fill="none" stroke="currentColor" stroke-linecap="round" stroke-linejoin="round" stroke-width="1.5"></path>
    <path d="M21.07 12 23 12" fill="none" stroke="currentColor" stroke-linecap="round" stroke-linejoin="round" stroke-width="1.5"></path>
    <path d="m1 12 1.93 0" fill="none" stroke="currentColor" stroke-linecap="round" stroke-linejoin="round" stroke-width="1.5"></path>
    <path d="m18.414 5.586 1.364 -1.364" fill="none" stroke="currentColor" stroke-linecap="round" stroke-linejoin="round" stroke-width="1.5"></path>
    <path d="m4.222 19.778 1.364 -1.364" fill="none" stroke="currentColor" stroke-linecap="round" stroke-linejoin="round" stroke-width="1.5"></path>
    <path d="m18.414 18.414 1.364 1.364" fill="none" stroke="currentColor" stroke-linecap="round" stroke-linejoin="round" stroke-width="1.5"></path>
    <path d="m4.222 4.222 1.364 1.364" fill="none" stroke="currentColor" stroke-linecap="round" stroke-linejoin="round" stroke-width="1.5"></path>
    <path d="M12.5 8.5v7a3.5 3.5 0 0 0 0 -7Z" fill="none" stroke="currentColor" stroke-linecap="round" stroke-linejoin="round" stroke-width="1.5"></path>
  </symbol>

  <!-- Arrow Left Icon -->
  <symbol id="icon-arrow-left" viewBox="0 0 24 24">
    <path d="M10.25 6.75L4.75 12l5.5 5.25" fill="none" stroke="currentColor" stroke-linecap="round" stroke-linejoin="round" stroke-width="1.5"></path>
    <path d="M19.25 12h-14" fill="none" stroke="currentColor" stroke-linecap="round" stroke-linejoin="round" stroke-width="1.5"></path>
  </symbol>
</svg>
