<svg xmlns="http://www.w3.org/2000/svg" style="display: none;">
  <!-- PDF Icon -->
  <symbol id="icon-pdf" viewBox="0 0 24 24">
    <path d="m4.499 19.498 0 -7.5" fill="none" stroke="currentColor" stroke-linecap="round" stroke-linejoin="round" stroke-width="1.5"></path>
    <path d="M4.5 12h0.75a2.25 2.25 0 0 1 0 4.5H4.5" fill="none" stroke="currentColor" stroke-linecap="round" stroke-linejoin="round" stroke-width="1.5"></path>
    <path d="M10.5 19.5a3 3 0 0 0 3 -3V15a3 3 0 0 0 -3 -3Z" fill="none" stroke="currentColor" stroke-linecap="round" stroke-linejoin="round" stroke-width="1.5"></path>
    <path d="M16.5 19.5v-6A1.5 1.5 0 0 1 18 12h1.5" fill="none" stroke="currentColor" stroke-linecap="round" stroke-linejoin="round" stroke-width="1.5"></path>
    <path d="m16.499 16.498 2.25 0" fill="none" stroke="currentColor" stroke-linecap="round" stroke-linejoin="round" stroke-width="1.5"></path>
    <path d="M22.809 5.559a1.5 1.5 0 0 1 0.44 1.06V21A2.25 2.25 0 0 1 21 23.248H3A2.25 2.25 0 0 1 0.749 21V3A2.25 2.25 0 0 1 3 0.748h14.377a1.5 1.5 0 0 1 1.061 0.439Z" fill="none" stroke="currentColor" stroke-linecap="round" stroke-linejoin="round" stroke-width="1.5"></path>
    <path d="M17.249 0.748v4.5a1.5 1.5 0 0 0 1.5 1.5h4.5" fill="none" stroke="currentColor" stroke-linecap="round" stroke-linejoin="round" stroke-width="1.5"></path>
  </symbol>

  <!-- Download Icon -->
  <symbol id="icon-download" viewBox="0 0 24 24">
    <path d="M8.25 14.25 12 18l3.75 -3.75" fill="none" stroke="currentColor" stroke-linecap="round" stroke-linejoin="round" stroke-width="1.5"></path>
    <path d="M12 6.75 12 18" fill="none" stroke="currentColor" stroke-linecap="round" stroke-linejoin="round" stroke-width="1.5"></path>
    <path d="M0.75 12a11.25 11.25 0 1 0 22.5 0 11.25 11.25 0 1 0 -22.5 0Z" fill="none" stroke="currentColor" stroke-linecap="round" stroke-linejoin="round" stroke-width="1.5"></path>
  </symbol>

  <!-- New Window Icon -->
  <symbol id="icon-new-window" viewBox="0 0 24 24">
    <path d="M14 3h7v7" fill="none" stroke="currentColor" stroke-linecap="round" stroke-linejoin="round" stroke-width="1.5"></path>
    <path d="M21 3l-9 9" fill="none" stroke="currentColor" stroke-linecap="round" stroke-linejoin="round" stroke-width="1.5"></path>
    <path d="M21 14v6a1 1 0 0 1 -1 1H4a1 1 0 0 1 -1 -1V4a1 1 0 0 1 1 -1h6" fill="none" stroke="currentColor" stroke-linecap="round" stroke-linejoin="round" stroke-width="1.5"></path>
  </symbol>

  <!-- Light Mode Icon -->
  <symbol id="icon-light" viewBox="0 0 24 24">
    <path d="M5.25 12a6.75 6.75 0 1 0 13.5 0 6.75 6.75 0 1 0 -13.5 0Z" fill="none" stroke="currentColor" stroke-linecap="round" stroke-linejoin="round" stroke-width="1.5"></path>
    <path d="m12 2.25 0 -1.5" fill="none" stroke="currentColor" stroke-linecap="round" stroke-linejoin="round" stroke-width="1.5"></path>
    <path d="m18.894 5.106 1.061 -1.061" fill="none" stroke="currentColor" stroke-linecap="round" stroke-linejoin="round" stroke-width="1.5"></path>
    <path d="m21.75 12 1.5 0" fill="none" stroke="currentColor" stroke-linecap="round" stroke-linejoin="round" stroke-width="1.5"></path>
    <path d="m18.894 18.894 1.061 1.061" fill="none" stroke="currentColor" stroke-linecap="round" stroke-linejoin="round" stroke-width="1.5"></path>
    <path d="m12 21.75 0 1.5" fill="none" stroke="currentColor" stroke-linecap="round" stroke-linejoin="round" stroke-width="1.5"></path>
    <path d="m5.106 18.894 -1.061 1.061" fill="none" stroke="currentColor" stroke-linecap="round" stroke-linejoin="round" stroke-width="1.5"></path>
    <path d="m2.25 12 -1.5 0" fill="none" stroke="currentColor" stroke-linecap="round" stroke-linejoin="round" stroke-width="1.5"></path>
    <path d="M5.106 5.106 4.045 4.045" fill="none" stroke="currentColor" stroke-linecap="round" stroke-linejoin="round" stroke-width="1.5"></path>
  </symbol>

  <!-- Dark Mode Icon -->
  <symbol id="icon-dark" viewBox="0 0 24 24">
    <path d="M13.266 2.253a9.75 9.75 0 1 1 -0.643 19.458" fill="none" stroke="currentColor" stroke-linecap="round" stroke-linejoin="round" stroke-width="1.5"></path>
    <path d="M0.75 12a7.5 7.5 0 1 0 15 0 7.5 7.5 0 1 0 -15 0Z" fill="none" stroke="currentColor" stroke-linecap="round" stroke-linejoin="round" stroke-width="1.5"></path>
    <path d="M9.311 4.575 0.825 13.061" fill="none" stroke="currentColor" stroke-linecap="round" stroke-linejoin="round" stroke-width="1.5"></path>
    <path d="M13.553 6.697 2.947 17.303" fill="none" stroke="currentColor" stroke-linecap="round" stroke-linejoin="round" stroke-width="1.5"></path>
    <path d="m15.675 10.939 -8.486 8.486" fill="none" stroke="currentColor" stroke-linecap="round" stroke-linejoin="round" stroke-width="1.5"></path>
  </symbol>

  <!-- System Mode Icon -->
  <symbol id="icon-system" viewBox="0 0 24 24">
    <path d="M5.5 12a6.5 6.5 0 1 0 13 0 6.5 6.5 0 1 0 -13 0" fill="none" stroke="currentColor" stroke-linecap="round" stroke-linejoin="round" stroke-width="1.5"></path>
    <path d="M12 2.93 12 1" fill="none" stroke="currentColor" stroke-linecap="round" stroke-linejoin="round" stroke-width="1.5"></path>
    <path d="m12 23 0 -1.93" fill="none" stroke="currentColor" stroke-linecap="round" stroke-linejoin="round" stroke-width="1.5"></path>
    <path d="M21.07 12 23 12" fill="none" stroke="currentColor" stroke-linecap="round" stroke-linejoin="round" stroke-width="1.5"></path>
    <path d="m1 12 1.93 0" fill="none" stroke="currentColor" stroke-linecap="round" stroke-linejoin="round" stroke-width="1.5"></path>
    <path d="m18.414 5.586 1.364 -1.364" fill="none" stroke="currentColor" stroke-linecap="round" stroke-linejoin="round" stroke-width="1.5"></path>
    <path d="m4.222 19.778 1.364 -1.364" fill="none" stroke="currentColor" stroke-linecap="round" stroke-linejoin="round" stroke-width="1.5"></path>
    <path d="m18.414 18.414 1.364 1.364" fill="none" stroke="currentColor" stroke-linecap="round" stroke-linejoin="round" stroke-width="1.5"></path>
    <path d="m4.222 4.222 1.364 1.364" fill="none" stroke="currentColor" stroke-linecap="round" stroke-linejoin="round" stroke-width="1.5"></path>
    <path d="M12.5 8.5v7a3.5 3.5 0 0 0 0 -7Z" fill="none" stroke="currentColor" stroke-linecap="round" stroke-linejoin="round" stroke-width="1.5"></path>
  </symbol>

  <!-- Theme Palette Icon -->
  <symbol id="icon-theme-palette" viewBox="0 0 24 24">
    <path d="M7.5 0.75H3c-0.82843 0 -1.5 0.67157 -1.5 1.5v19.5c0 0.8284 0.67157 1.5 1.5 1.5h4.5c0.82843 0 1.5 -0.6716 1.5 -1.5V2.25c0 -0.82843 -0.67157 -1.5 -1.5 -1.5Z" fill="none" stroke="currentColor" stroke-linecap="round" stroke-linejoin="round" stroke-width="1.5"></path>
    <path d="m11.76 0.859985 4.16 1.720005c0.1868 0.07545 0.3565 0.18751 0.4993 0.32958 0.1428 0.14206 0.2557 0.31126 0.3321 0.49763 0.0765 0.18636 0.1148 0.38613 0.1128 0.58755 -0.0019 0.20141 -0.0442 0.40039 -0.1242 0.58524L9 21.75" fill="none" stroke="currentColor" stroke-linecap="round" stroke-linejoin="round" stroke-width="1.5"></path>
    <path d="m19.08 5.78998 3 3.33c0.1327 0.14572 0.2354 0.31617 0.3022 0.50161 0.0669 0.18544 0.0965 0.38221 0.0872 0.57911 -0.0093 0.1969 -0.0573 0.39 -0.1413 0.5683 -0.0839 0.1784 -0.2022 0.3384 -0.3481 0.471L8.82001 22.45" fill="none" stroke="currentColor" stroke-linecap="round" stroke-linejoin="round" stroke-width="1.5"></path>
    <path d="M1.5 7.25H9" fill="none" stroke="currentColor" stroke-linecap="round" stroke-linejoin="round" stroke-width="1.5"></path>
    <path d="M1.5 13.75H9" fill="none" stroke="currentColor" stroke-linecap="round" stroke-linejoin="round" stroke-width="1.5"></path>
    <path d="M5.18356 20.255c-0.2071 0 -0.375 -0.1679 -0.375 -0.375s0.1679 -0.375 0.375 -0.375" fill="none" stroke="currentColor" stroke-width="1.5"></path>
    <path d="M5.18356 20.255c0.20711 0 0.375 -0.1679 0.375 -0.375s-0.16789 -0.375 -0.375 -0.375" fill="none" stroke="currentColor" stroke-width="1.5"></path>
  </symbol>

  <!-- Settings Icon -->
  <symbol id="icon-settings" viewBox="0 0 24 24">
    <path d="M19.922 7.213a1.874 1.874 0 0 0 1.065 2.571l1.265 0.45a1.875 1.875 0 0 1 0 3.534l-1.265 0.45a1.874 1.874 0 0 0 -1.065 2.571L20.5 18a1.875 1.875 0 0 1 -2.5 2.5l-1.213 -0.576a1.874 1.874 0 0 0 -2.571 1.065l-0.45 1.265a1.875 1.875 0 0 1 -3.533 0l-0.45 -1.265a1.875 1.875 0 0 0 -2.572 -1.065L6 20.5A1.874 1.874 0 0 1 3.5 18l0.576 -1.213a1.874 1.874 0 0 0 -1.065 -2.571l-1.265 -0.45a1.875 1.875 0 0 1 0 -3.534l1.265 -0.45a1.874 1.874 0 0 0 1.065 -2.569L3.5 6A1.874 1.874 0 0 1 6 3.5l1.213 0.576a1.875 1.875 0 0 0 2.57 -1.063l0.45 -1.265a1.875 1.875 0 0 1 3.533 0l0.45 1.265a1.874 1.874 0 0 0 2.571 1.065L18 3.5A1.875 1.875 0 0 1 20.5 6Z" fill="none" stroke="currentColor" stroke-linecap="round" stroke-linejoin="round" stroke-width="1"></path>
    <path d="M7.499 12.001a4.5 4.5 0 1 0 9 0 4.5 4.5 0 1 0 -9 0Z" fill="none" stroke="currentColor" stroke-linecap="round" stroke-linejoin="round" stroke-width="1"></path>
  </symbol>

  <!-- Accordion Plus Icon -->
  <symbol id="icon-plus" viewBox="0 0 24 24">
    <path d="m0.75 12 22.5 0" fill="none" stroke="currentColor" stroke-linecap="round" stroke-linejoin="round" stroke-width="1.5"></path>
    <path d="m12 0.75 0 22.5" fill="none" stroke="currentColor" stroke-linecap="round" stroke-linejoin="round" stroke-width="1.5"></path>
  </symbol>

  <!-- Accordion Minus Icon -->
  <symbol id="icon-minus" viewBox="0 0 24 24">
    <path d="m0.75 12.038 22.5 0" fill="none" stroke="currentColor" stroke-linecap="round" stroke-linejoin="round" stroke-width="1.5"></path>
  </symbol>

  <!-- Mode Micro Icon -->
  <symbol id="icon-mode-micro" viewBox="0 0 10 10">
    <path d="M5 7.5c1.38071 0 2.5 -1.11929 2.5 -2.5S6.38071 2.5 5 2.5 2.5 3.61929 2.5 5 3.61929 7.5 5 7.5" fill="none" stroke="currentColor" stroke-linecap="round" stroke-linejoin="round" stroke-width="1"></path>
    <path d="M7.39508 5.71896C7.26639 5.73939 7.13443 5.75 7 5.75c-1.38071 0 -2.5 -1.11929 -2.5 -2.5 0 -0.24991 0.03667 -0.49126 0.10492 -0.71896C4.73361 2.51061 4.86557 2.5 5 2.5c1.38071 0 2.5 1.11929 2.5 2.5 0 0.24991 -0.03667 0.49126 -0.10492 0.71896" fill="none" stroke="currentColor" stroke-linecap="round" stroke-linejoin="round" stroke-width="1"></path>
    <path d="M5 0.5V1" fill="none" stroke="currentColor" stroke-linecap="round" stroke-linejoin="round" stroke-width="1"></path>
    <path d="m1.81799 1.81787 0.354 0.354" fill="none" stroke="currentColor" stroke-linecap="round" stroke-linejoin="round" stroke-width="1"></path>
    <path d="M0.5 5H1" fill="none" stroke="currentColor" stroke-linecap="round" stroke-linejoin="round" stroke-width="1"></path>
    <path d="m1.81799 8.18213 0.354 -0.35401" fill="none" stroke="currentColor" stroke-linecap="round" stroke-linejoin="round" stroke-width="1"></path>
    <path d="M5 9.5V9" fill="none" stroke="currentColor" stroke-linecap="round" stroke-linejoin="round" stroke-width="1"></path>
    <path d="m8.182 8.18213 -0.354 -0.35401" fill="none" stroke="currentColor" stroke-linecap="round" stroke-linejoin="round" stroke-width="1"></path>
    <path d="M9.5 5H9" fill="none" stroke="currentColor" stroke-linecap="round" stroke-linejoin="round" stroke-width="1"></path>
    <path d="m8.182 1.81787 -0.354 0.354" fill="none" stroke="currentColor" stroke-linecap="round" stroke-linejoin="round" stroke-width="1"></path>
  </symbol>

  <!-- Palette Micro Icon -->
  <symbol id="icon-palette-micro" viewBox="0 0 10 10">
    <path d="M5.45654 3.73975c0.47611 0 0.86206 -0.38596 0.86206 -0.86206 0 -0.47611 -0.38595 -0.86207 -0.86206 -0.86207 -0.4761 0 -0.86206 0.38596 -0.86206 0.86207 0 0.4761 0.38596 0.86206 0.86206 0.86206Z" fill="none" stroke="currentColor" stroke-linecap="round" stroke-linejoin="round" stroke-width="1"></path>
    <path d="M3.14014 5.79956c0.4761 0 0.86206 -0.38596 0.86206 -0.86206s-0.38596 -0.86206 -0.86206 -0.86206c-0.47611 0 -0.86206 0.38596 -0.86206 0.86206s0.38595 0.86206 0.86206 0.86206Z" fill="none" stroke="currentColor" stroke-linecap="round" stroke-linejoin="round" stroke-width="1"></path>
    <path d="M3.6604 7.42285c-0.06904 0 -0.125 -0.05596 -0.125 -0.125 0 -0.06903 0.05596 -0.125 0.125 -0.125" fill="none" stroke="currentColor" stroke-linecap="round" stroke-linejoin="round" stroke-width="1"></path>
    <path d="M3.6604 7.42285c0.06904 0 0.125 -0.05596 0.125 -0.125 0 -0.06903 -0.05596 -0.125 -0.125 -0.125" fill="none" stroke="currentColor" stroke-linecap="round" stroke-linejoin="round" stroke-width="1"></path>
    <path d="M6.74169 8.65537c-0.00771 -0.13429 -0.05438 -0.26342 -0.13429 -0.37161 -0.07992 -0.10819 -0.18962 -0.19076 -0.31571 -0.23762 -0.31312 -0.10292 -0.57927 -0.31416 -0.75057 -0.59575 -0.17131 -0.28159 -0.23655 -0.61506 -0.18399 -0.94044 0.05256 -0.32539 0.21948 -0.62136 0.47074 -0.83468 0.25125 -0.21333 0.57037 -0.33003 0.89998 -0.32912h1.29461c0.22204 0.00061 0.44098 -0.05218 0.63834 -0.15393 0.19736 -0.10175 0.36735 -0.24947 0.49564 -0.4307 0.12829 -0.18124 0.21111 -0.39067 0.24148 -0.61062 0.03036 -0.21996 0.00739 -0.444 -0.067 -0.65321 -0.27536 -0.77748 -0.7591 -1.46433 -1.39838 -1.9855C7.29326 0.991012 6.52303 0.655564 5.70602 0.54249 4.889 0.429416 4.05663 0.543065 3.29983 0.871021c-0.7568 0.327959 -1.40891 0.857599 -1.88508 1.531079 -0.476165 0.67347 -0.758077 1.46485 -0.814933 2.2877 -0.056856 0.82284 0.113531 1.64548 0.492543 2.37804 0.37902 0.73256 0.95208 1.34686 1.65658 1.77579 0.7045 0.42893 1.51334 0.65598 2.33814 0.65635 0.40733 0.00114 0.81281 -0.05479 1.20461 -0.16615 0.14391 -0.04032 0.26853 -0.13103 0.35114 -0.25557 0.0826 -0.12455 0.11769 -0.27463 0.09886 -0.42289v0Z" fill="none" stroke="currentColor" stroke-linecap="round" stroke-linejoin="round" stroke-width="1"></path>
  </symbol>

  <!-- Language Micro Icon -->
  <symbol id="icon-language-micro" viewBox="0 0 10 10">
    <path d="M9.5 9.5 7.25 5 5 9.5" fill="none" stroke="currentColor" stroke-linecap="round" stroke-linejoin="round" stroke-width="1"></path>
    <path d="M0.5 0.5h6" fill="none" stroke="currentColor" stroke-linecap="round" stroke-linejoin="round" stroke-width="1"></path>
    <path d="M6 0.5 1.5 6" fill="none" stroke="currentColor" stroke-linecap="round" stroke-linejoin="round" stroke-width="1"></path>
    <path d="m2.37 2.11 2.531 2.974" fill="none" stroke="currentColor" stroke-linecap="round" stroke-linejoin="round" stroke-width="1"></path>
    <path d="M5.5 8.5H9" fill="none" stroke="currentColor" stroke-linecap="round" stroke-linejoin="round" stroke-width="1"></path>
  </symbol>

  <!-- Home Micro Icon -->
  <symbol id="icon-home-micro" viewBox="0 0 10 10">
    <path d="M0.5 5.246 5 0.5l4.5 4.746" fill="none" stroke="currentColor" stroke-linecap="round" stroke-linejoin="round" stroke-width="1"></path>
    <path d="M2 5.246V8.5a1 1 0 0 0 1 1h4a1 1 0 0 0 1 -1V5.246" fill="none" stroke="currentColor" stroke-linecap="round" stroke-linejoin="round" stroke-width="1"></path>
  </symbol>

  <!-- Arrow Right Micro Icon -->
  <symbol id="icon-arrow-right-micro" viewBox="0 0 10 10">
    <path d="M2.75 0.5 7.1 4.646a0.5 0.5 0 0 1 0 0.708L2.75 9.5" fill="none" stroke="currentColor" stroke-linecap="round" stroke-linejoin="round" stroke-width="1"></path>
  </symbol>

  <symbol id="icon-grid-micro" viewBox="0 0 10 10">
    <path d="M8.5 0.5h-7a1 1 0 0 0 -1 1v7a1 1 0 0 0 1 1h7a1 1 0 0 0 1 -1v-7a1 1 0 0 0 -1 -1Z" fill="none" stroke="currentColor" stroke-linecap="round" stroke-linejoin="round" stroke-width="1"></path>
    <path d="M9.5 3.5h-9" fill="none" stroke="currentColor" stroke-linecap="round" stroke-linejoin="round" stroke-width="1"></path>
    <path d="M6.5 3.5v6" fill="none" stroke="currentColor" stroke-linecap="round" stroke-linejoin="round" stroke-width="1"></path>
    <path d="M3.5 3.5v6" fill="none" stroke="currentColor" stroke-linecap="round" stroke-linejoin="round" stroke-width="1"></path>
  </symbol>

  <!-- Effects Icons -->
  <symbol id="icon-grid-effect" viewBox="0 0 24 24">
    <path d="M2.25 0.747h1.5s1.5 0 1.5 1.5v19.5s0 1.5 -1.5 1.5h-1.5s-1.5 0 -1.5 -1.5v-19.5s0 -1.5 1.5 -1.5" fill="none" stroke="currentColor" stroke-linecap="round" stroke-linejoin="round" stroke-width="1.5"></path>
    <path d="M11.251 0.747h1.5s1.5 0 1.5 1.5v19.5s0 1.5 -1.5 1.5h-1.5s-1.5 0 -1.5 -1.5v-19.5s0 -1.5 1.5 -1.5" fill="none" stroke="currentColor" stroke-linecap="round" stroke-linejoin="round" stroke-width="1.5"></path>
    <path d="M20.25 0.747h1.5s1.5 0 1.5 1.5v19.5s0 1.5 -1.5 1.5h-1.5s-1.5 0 -1.5 -1.5v-19.5s0 -1.5 1.5 -1.5" fill="none" stroke="currentColor" stroke-linecap="round" stroke-linejoin="round" stroke-width="1.5"></path>
  </symbol>

  <symbol id="icon-grain-effect" viewBox="0 0 24 24">
    <path d="M12 23c6.0751 0 11 -4.9249 11 -11 0 -6.07513 -4.9249 -11 -11 -11C5.92487 1 1 5.92487 1 12c0 6.0751 4.92487 11 11 11Z" fill="none" stroke="currentColor" stroke-linecap="round" stroke-linejoin="round" stroke-width="1.5"></path>
    <path d="M12 4.5c-0.2761 0 -0.5 -0.22386 -0.5 -0.5s0.2239 -0.5 0.5 -0.5" fill="none" stroke="currentColor" stroke-width="1.5"></path>
    <path d="M12 4.5c0.2761 0 0.5 -0.22386 0.5 -0.5s-0.2239 -0.5 -0.5 -0.5" fill="none" stroke="currentColor" stroke-width="1.5"></path>
    <path d="M8.5 7c-0.27614 0 -0.5 -0.22386 -0.5 -0.5s0.22386 -0.5 0.5 -0.5" fill="none" stroke="currentColor" stroke-width="1.5"></path>
    <path d="M8.5 7c0.27614 0 0.5 -0.22386 0.5 -0.5S8.77614 6 8.5 6" fill="none" stroke="currentColor" stroke-width="1.5"></path>
    <path d="M15.5 7c-0.2761 0 -0.5 -0.22386 -0.5 -0.5s0.2239 -0.5 0.5 -0.5" fill="none" stroke="currentColor" stroke-width="1.5"></path>
    <path d="M15.5 7c0.2761 0 0.5 -0.22386 0.5 -0.5s-0.2239 -0.5 -0.5 -0.5" fill="none" stroke="currentColor" stroke-width="1.5"></path>
    <path d="M15.5 12.5c-0.2761 0 -0.5 -0.2239 -0.5 -0.5s0.2239 -0.5 0.5 -0.5" fill="none" stroke="currentColor" stroke-width="1.5"></path>
    <path d="M15.5 12.5c0.2761 0 0.5 -0.2239 0.5 -0.5s-0.2239 -0.5 -0.5 -0.5" fill="none" stroke="currentColor" stroke-width="1.5"></path>
    <path d="M15.5 18c-0.2761 0 -0.5 -0.2239 -0.5 -0.5s0.2239 -0.5 0.5 -0.5" fill="none" stroke="currentColor" stroke-width="1.5"></path>
    <path d="M15.5 18c0.2761 0 0.5 -0.2239 0.5 -0.5s-0.2239 -0.5 -0.5 -0.5" fill="none" stroke="currentColor" stroke-width="1.5"></path>
    <path d="M8.5 18c-0.27614 0 -0.5 -0.2239 -0.5 -0.5s0.22386 -0.5 0.5 -0.5" fill="none" stroke="currentColor" stroke-width="1.5"></path>
    <path d="M8.5 18c0.27614 0 0.5 -0.2239 0.5 -0.5s-0.22386 -0.5 -0.5 -0.5" fill="none" stroke="currentColor" stroke-width="1.5"></path>
    <path d="M8.5 12.5c-0.27614 0 -0.5 -0.2239 -0.5 -0.5s0.22386 -0.5 0.5 -0.5" fill="none" stroke="currentColor" stroke-width="1.5"></path>
    <path d="M8.5 12.5c0.27614 0 0.5 -0.2239 0.5 -0.5s-0.22386 -0.5 -0.5 -0.5" fill="none" stroke="currentColor" stroke-width="1.5"></path>
    <path d="M12 9.75c-0.2761 0 -0.5 -0.22386 -0.5 -0.5s0.2239 -0.5 0.5 -0.5" fill="none" stroke="currentColor" stroke-width="1.5"></path>
    <path d="M12 9.75c0.2761 0 0.5 -0.22386 0.5 -0.5s-0.2239 -0.5 -0.5 -0.5" fill="none" stroke="currentColor" stroke-width="1.5"></path>
    <path d="M19 9.75c-0.2761 0 -0.5 -0.22386 -0.5 -0.5s0.2239 -0.5 0.5 -0.5" fill="none" stroke="currentColor" stroke-width="1.5"></path>
    <path d="M19 9.75c0.2761 0 0.5 -0.22386 0.5 -0.5s-0.2239 -0.5 -0.5 -0.5" fill="none" stroke="currentColor" stroke-width="1.5"></path>
    <path d="M5 9.75c-0.27614 0 -0.5 -0.22386 -0.5 -0.5s0.22386 -0.5 0.5 -0.5" fill="none" stroke="currentColor" stroke-width="1.5"></path>
    <path d="M5 9.75c0.27614 0 0.5 -0.22386 0.5 -0.5s-0.22386 -0.5 -0.5 -0.5" fill="none" stroke="currentColor" stroke-width="1.5"></path>
    <path d="M12 15.5c-0.2761 0 -0.5 -0.2239 -0.5 -0.5s0.2239 -0.5 0.5 -0.5" fill="none" stroke="currentColor" stroke-width="1.5"></path>
    <path d="M12 15.5c0.2761 0 0.5 -0.2239 0.5 -0.5s-0.2239 -0.5 -0.5 -0.5" fill="none" stroke="currentColor" stroke-width="1.5"></path>
    <path d="M5 15.5c-0.27614 0 -0.5 -0.2239 -0.5 -0.5s0.22386 -0.5 0.5 -0.5" fill="none" stroke="currentColor" stroke-width="1.5"></path>
    <path d="M5 15.5c0.27614 0 0.5 -0.2239 0.5 -0.5s-0.22386 -0.5 -0.5 -0.5" fill="none" stroke="currentColor" stroke-width="1.5"></path>
    <path d="M19 15.5c-0.2761 0 -0.5 -0.2239 -0.5 -0.5s0.2239 -0.5 0.5 -0.5" fill="none" stroke="currentColor" stroke-width="1.5"></path>
    <path d="M19 15.5c0.2761 0 0.5 -0.2239 0.5 -0.5s-0.2239 -0.5 -0.5 -0.5" fill="none" stroke="currentColor" stroke-width="1.5"></path>
    <path d="M12 20.5c-0.2761 0 -0.5 -0.2239 -0.5 -0.5s0.2239 -0.5 0.5 -0.5" fill="none" stroke="currentColor" stroke-width="1.5"></path>
    <path d="M12 20.5c0.2761 0 0.5 -0.2239 0.5 -0.5s-0.2239 -0.5 -0.5 -0.5" fill="none" stroke="currentColor" stroke-width="1.5"></path>
  </symbol>

  <symbol id="icon-motion-effect" viewBox="0 0 24 24">
    <path d="M8.25 12a7.5 7.5 0 1 0 15 0 7.5 7.5 0 1 0 -15 0Z" fill="none" stroke="currentColor" stroke-linecap="round" stroke-linejoin="round" stroke-width="1.5"></path>
    <path d="m5.641 9.75 -4.891 0" fill="none" stroke="currentColor" stroke-linecap="round" stroke-linejoin="round" stroke-width="1.5"></path>
    <path d="m5.641 14.25 -4.891 0" fill="none" stroke="currentColor" stroke-linecap="round" stroke-linejoin="round" stroke-width="1.5"></path>
    <path d="m7.5 4.5 -3.75 0" fill="none" stroke="currentColor" stroke-linecap="round" stroke-linejoin="round" stroke-width="1.5"></path>
    <path d="m7.5 19.5 -3.75 0" fill="none" stroke="currentColor" stroke-linecap="round" stroke-linejoin="round" stroke-width="1.5"></path>
  </symbol>

  <symbol id="icon-blend-effect" viewBox="0 0 24 24">
    <path d="M21.75 0.75H5.25c-0.82843 0 -1.5 0.67157 -1.5 1.5v16.5c0 0.8284 0.67157 1.5 1.5 1.5h16.5c0.8284 0 1.5 -0.6716 1.5 -1.5V2.25c0 -0.82843 -0.6716 -1.5 -1.5 -1.5Z" fill="none" stroke="currentColor" stroke-linecap="round" stroke-linejoin="round" stroke-width="1.5"></path>
    <path d="M20.25 23.25h-18c-0.39782 0 -0.77936 -0.158 -1.06066 -0.4393C0.908035 22.5294 0.75 22.1478 0.75 21.75v-18" fill="none" stroke="currentColor" stroke-linecap="round" stroke-linejoin="round" stroke-width="1.5"></path>
    <path d="M8.625 7.49597c-0.20711 0 -0.375 -0.16789 -0.375 -0.375s0.16789 -0.375 0.375 -0.375" fill="none" stroke="currentColor" stroke-width="1.5"></path>
    <path d="M8.625 7.49597c0.20711 0 0.375 -0.16789 0.375 -0.375s-0.16789 -0.375 -0.375 -0.375" fill="none" stroke="currentColor" stroke-width="1.5"></path>
    <path d="m20.25 15.746 -3.87 -5.83603c-0.0679 -0.10141 -0.1596 -0.1847 -0.267 -0.24262 -0.1074 -0.05791 -0.2273 -0.0887 -0.3494 -0.08969 -0.122 -0.00098 -0.2424 0.02786 -0.3508 0.08404 -0.1083 0.05617 -0.2013 0.13797 -0.2708 0.23827L13.147 12.75l-1.237 -0.989c-0.0812 -0.0649 -0.175 -0.1121 -0.2754 -0.1388 -0.1005 -0.0267 -0.2053 -0.0322 -0.308 -0.0162 -0.1027 0.016 -0.2009 0.0531 -0.2884 0.109 -0.0876 0.056 -0.1626 0.1295 -0.2202 0.216l-2.54603 3.815H20.25Z" fill="none" stroke="currentColor" stroke-linecap="round" stroke-linejoin="round" stroke-width="1.5"></path>
  </symbol>

  <symbol id="icon-pantone-effect" viewBox="0 0 16 16">
    <g transform="scale(.66666)">
      <circle cx="5.288" cy="5.25" r="1.5" fill="none" stroke="currentColor" stroke-linecap="round" stroke-linejoin="round" stroke-width="1.5"></circle>
      <circle cx="5.288" cy="11.25" r="1.5" fill="none" stroke="currentColor" stroke-linecap="round" stroke-linejoin="round" stroke-width="1.5"></circle>
      <circle cx="5.288" cy="17.25" r="1.5" fill="none" stroke="currentColor" stroke-linecap="round" stroke-linejoin="round" stroke-width="1.5"></circle>
      <path d="M9.2 19.33v0c0 2.16-1.76 3.91-3.92 3.91 -2.17 0-3.92-1.76-3.913-3.92V2.69v0C1.36 1.6 2.23.73 3.31.73h3.91v0c1.08 0 1.95.87 1.95 1.95Z" fill="none" stroke="currentColor" stroke-linecap="round" stroke-linejoin="round" stroke-width="1.5"></path>
      <path d="M8.64 21.352l8.34-14.461v0c.54-.94.21-2.14-.72-2.673l-3.39-1.956v0c-.31-.18-.67-.27-1.02-.27" fill="none" stroke="currentColor" stroke-linecap="round" stroke-linejoin="round" stroke-width="1.5"></path>
      <path d="M7.293 22.7l14.35-8.29 0-.001c.93-.55 1.25-1.74.71-2.68l-1.96-3.39v0c-.13-.23-.3-.42-.5-.57" fill="none" stroke="currentColor" stroke-linecap="round" stroke-linejoin="round" stroke-width="1.5"></path>
    </g>
  </symbol>

  <symbol id="icon-arrow-up-streamline" viewBox="0 0 24 24">
    <path d="M0.75 17.189 11.47 6.47a0.749 0.749 0 0 1 1.06 0l10.72 10.719" fill="none" stroke="currentColor" stroke-linecap="round" stroke-linejoin="round" stroke-width="1.5"></path>
  </symbol>

  <!-- Home Icon (16px) -->
  <symbol id="icon-home" viewBox="0 0 24 24">
    <path d="M3.753 13.944v8.25h6v-6a1.5 1.5 0 0 1 1.5 -1.5h1.5a1.5 1.5 0 0 1 1.5 1.5v6h6v-8.25" fill="none" stroke="currentColor" stroke-linecap="round" stroke-linejoin="round" stroke-width="1.5"></path>
    <path d="M0.753 12.444 10.942 2.255a1.5 1.5 0 0 1 2.122 0l10.189 10.189" fill="none" stroke="currentColor" stroke-linecap="round" stroke-linejoin="round" stroke-width="1.5"></path>
  </symbol>

  <!-- Profile Male Icon -->
  <symbol id="icon-profile-male" viewBox="0 0 24 24">
    <path d="M7.131 6.875a2.625 2.625 0 1 0 5.25 0 2.625 2.625 0 1 0 -5.25 0" fill="none" stroke="currentColor" stroke-linecap="round" stroke-linejoin="round" stroke-width="1.5"></path>
    <path d="M10.006 14.75h-4.75a4.5 4.5 0 0 1 7.75 -3.112" fill="none" stroke="currentColor" stroke-linecap="round" stroke-linejoin="round" stroke-width="1.5"></path>
    <path d="M7.49 18.75H3.756a3 3 0 0 1 -3 -3v-12a3 3 0 0 1 3 -3h12a3 3 0 0 1 3 3v4.5" fill="none" stroke="currentColor" stroke-linecap="round" stroke-linejoin="round" stroke-width="1.5"></path>
    <path d="m13.718 19.227 3.822 -3.822a1.423 1.423 0 0 1 2.012 2.012l-4.44 4.439a2.845 2.845 0 0 1 -4.023 -4.023l4.871 -4.87A4.267 4.267 0 0 1 21.994 19l-4.253 4.25" fill="none" stroke="currentColor" stroke-linecap="round" stroke-linejoin="round" stroke-width="1.5"></path>
  </symbol>

  <!-- Arrow Left Icon -->
  <symbol id="icon-arrow-left" viewBox="0 0 24 24">
    <path d="M10.25 6.75L4.75 12l5.5 5.25" fill="none" stroke="currentColor" stroke-linecap="round" stroke-linejoin="round" stroke-width="1.5"></path>
    <path d="M19.25 12h-14" fill="none" stroke="currentColor" stroke-linecap="round" stroke-linejoin="round" stroke-width="1.5"></path>
  </symbol>

  <!-- Arrow Right Icon -->
  <symbol id="icon-arrow-right" viewBox="0 0 16 16">
    <path d="M15.9913 7.99983C15.9846 7.53983 15.7913 7.09983 15.4446 6.79983L7.98665 0.239835V0.233168C7.57331 -0.106832 6.96665 -0.046832 6.63331 0.366501C6.31331 0.753168 6.34665 1.3265 6.71331 1.6665L12.4666 6.73317C12.5333 6.79317 12.54 6.89317 12.48 6.9665C12.4466 6.99983 12.4 7.01983 12.3533 7.01983H0.93998C0.406647 7.01983 -0.0200195 7.4465 -0.0200195 7.97984C-0.0200195 8.5065 0.406647 8.93983 0.93998 8.93983H12.3473V8.93917C12.434 8.93917 12.5073 9.0125 12.5073 9.10584C12.5006 9.1525 12.4806 9.1925 12.4473 9.22583L6.68731 14.2925C6.27398 14.6192 6.20731 15.2258 6.54065 15.6392C6.86731 16.0458 7.47398 16.1125 7.88731 15.7792C7.90731 15.7592 7.92731 15.7392 7.94731 15.7258L15.4006 9.16583C15.7406 8.85917 15.9406 8.41917 15.9406 7.96584L15.9913 7.99983Z" fill="currentColor"/>
  </symbol>

  <!-- Curl Icon (Contact section) -->
  <symbol id="icon-curl" viewBox="0 0 24 25">
    <path d="M24 15.5L18.5 15.5C12.7264 15.5 7 13.4183 7 8.5C7 4.47834 13 5.4784 13 9.5C13 15.0147 7.59434 14.5 1.5 14.5H0" stroke="currentColor" stroke-width="1.5" fill="none"/>
  </symbol>

  <!-- Language Icon -->
  <symbol id="icon-language" viewBox="0 0 24 24">
    <g fill="none" stroke="currentColor" stroke-linecap="round" stroke-linejoin="round" stroke-width="1.5">
      <polyline points="19.652 .748 15.902 2.998 18.152 6.748"></polyline>
      <path d="M23.25 8.187v0c-1.04-2.86-3.86-4.67-6.884-4.42"></path>
      <polyline points="4.348 23.248 8.098 20.998 5.848 17.248"></polyline>
      <path d="M.75 15.808H.749c1.03 2.85 3.85 4.66 6.88 4.41"></path>
      <rect width="12" height="12" x=".75" y=".748" rx="1.5"></rect>
      <path d="M15.75 11.24h6v0c.82 0 1.5.67 1.5 1.5v9 0c0 .82-.68 1.5-1.5 1.5h-9v0c-.83 0-1.5-.68-1.5-1.5v-6"></path>
      <path d="M15.75 20.24v-4.5 0c0-.83.67-1.5 1.5-1.5 .82 0 1.5.67 1.5 1.5v4.5"></path>
      <line x1="15.75" x2="18.75" y1="18.75" y2="18.75"></line>
      <line x1="6.75" x2="6.75" y1="3.75" y2="5.25"></line>
      <line x1="3.75" x2="9.75" y1="5.25" y2="5.25"></line>
      <path d="M8.25 5.248s-1.5 4.5-4.5 4.5"></path>
      <path d="M6.74 8.014l-.001-.001c.67 1.01 1.78 1.65 3 1.73"></path>
    </g>
  </symbol>

  <!-- System Mode Icon (Screen) -->
  <symbol id="icon-system-screen" viewBox="0 0 24 24">
    <path d="M2.247 2.25h19.5s1.5 0 1.5 1.5v12s0 1.5 -1.5 1.5h-19.5s-1.5 0 -1.5 -1.5v-12s0 -1.5 1.5 -1.5" fill="none" stroke="currentColor" stroke-linecap="round" stroke-linejoin="round" stroke-width="1.5"></path>
    <path d="m15.747 21.75 -7.5 0 0.75 -4.5 6 0 0.75 4.5z" fill="none" stroke="currentColor" stroke-linecap="round" stroke-linejoin="round" stroke-width="1.5"></path>
    <path d="m5.997 21.75 12 0" fill="none" stroke="currentColor" stroke-linecap="round" stroke-linejoin="round" stroke-width="1.5"></path>
  </symbol>

  <!-- Pantone Player Icons -->
  <symbol id="icon-player-play" viewBox="0 0 24 24">
    <path d="M23.14 10.61 2.25 0.16A1.56 1.56 0 0 0 0 1.56v20.88a1.56 1.56 0 0 0 2.25 1.4l20.89 -10.45a1.55 1.55 0 0 0 0 -2.78Z" fill="currentColor" stroke-width="1"></path>
  </symbol>

  <symbol id="icon-player-pause" viewBox="0 0 24 24">
    <path d="M4 2h5v20H4z" fill="currentColor" stroke-width="1"></path>
    <path d="M15 2h5v20h-5z" fill="currentColor" stroke-width="1"></path>
  </symbol>

  <symbol id="icon-player-stop" viewBox="0 0 24 24">
    <path d="M3.5 2h17S22 2 22 3.5v17s0 1.5 -1.5 1.5h-17S2 22 2 20.5v-17S2 2 3.5 2" fill="currentColor" stroke-width="1"></path>
  </symbol>

  <symbol id="icon-player-previous" viewBox="0 0 24 24">
    <path d="M21.5 1.38 11 10.86a1.56 1.56 0 0 0 0 2.28l10.5 9.48a1.5 1.5 0 0 0 2.5 -1.14v-19a1.51 1.51 0 0 0 -2.5 -1.1Z" fill="currentColor" stroke-width="1"></path>
    <path d="M1.5 0h4S7 0 7 1.5v21S7 24 5.5 24h-4S0 24 0 22.5v-21S0 0 1.5 0" fill="currentColor" stroke-width="1"></path>
  </symbol>

  <symbol id="icon-player-next" viewBox="0 0 24 24">
    <path d="M13 10.86 2.5 1.38A1.5 1.5 0 0 0 0 2.52v19a1.51 1.51 0 0 0 2.5 1.14L13 13.14a1.55 1.55 0 0 0 0 -2.28Z" fill="currentColor" stroke-width="1"></path>
    <path d="M18.5 0h4S24 0 24 1.5v21s0 1.5 -1.5 1.5h-4S17 24 17 22.5v-21S17 0 18.5 0" fill="currentColor" stroke-width="1"></path>
  </symbol>

  <symbol id="icon-player-loop" viewBox="0 0 10 10">
    <path d="m3.26869 4.99989 1.90444 -1.87544 -1.90444 -1.87543" fill="none" stroke="currentColor" stroke-linecap="round" stroke-linejoin="round" stroke-width="1"></path>
    <path d="m5.02658 3.12451 -3.14293 0c-0.76493 0 -1.385039 0.61066 -1.385039 1.36395l0.000001 2.8984c0 0.75329 0.620108 1.36395 1.385038 1.36395h6.23269c0.76494 0 1.38504 -0.61066 1.38504 -1.36395v-2.8984c0 -0.75329 -0.6201 -1.36395 -1.38504 -1.36395l-1.03878 0" fill="none" stroke="currentColor" stroke-linecap="round" stroke-linejoin="round" stroke-width="1"></path>
  </symbol>

  <symbol id="icon-player-shuffle" viewBox="0 0 10 10">
    <path d="M0.5 2.5H3l2.5 5h4" fill="none" stroke="currentColor" stroke-linecap="round" stroke-linejoin="round" stroke-width="1"></path>
    <path d="m8 6 1.5 1.5L8 9" fill="none" stroke="currentColor" stroke-linecap="round" stroke-linejoin="round" stroke-width="1"></path>
    <path d="m8 1 1.5 1.5L8 4" fill="none" stroke="currentColor" stroke-linecap="round" stroke-linejoin="round" stroke-width="1"></path>
    <path d="M0.5 7.5h2" fill="none" stroke="currentColor" stroke-linecap="round" stroke-linejoin="round" stroke-width="1"></path>
    <path d="M9.5 2.5H6" fill="none" stroke="currentColor" stroke-linecap="round" stroke-linejoin="round" stroke-width="1"></path>
  </symbol>
</svg>
