<svg xmlns="http://www.w3.org/2000/svg" style="display: none;">
  <!-- PDF Icon -->
  <symbol id="icon-pdf" viewBox="0 0 24 24">
    <path d="m4.499 19.498 0 -7.5" fill="none" stroke="currentColor" stroke-linecap="round" stroke-linejoin="round" stroke-width="1.5"></path>
    <path d="M4.5 12h0.75a2.25 2.25 0 0 1 0 4.5H4.5" fill="none" stroke="currentColor" stroke-linecap="round" stroke-linejoin="round" stroke-width="1.5"></path>
    <path d="M10.5 19.5a3 3 0 0 0 3 -3V15a3 3 0 0 0 -3 -3Z" fill="none" stroke="currentColor" stroke-linecap="round" stroke-linejoin="round" stroke-width="1.5"></path>
    <path d="M16.5 19.5v-6A1.5 1.5 0 0 1 18 12h1.5" fill="none" stroke="currentColor" stroke-linecap="round" stroke-linejoin="round" stroke-width="1.5"></path>
    <path d="m16.499 16.498 2.25 0" fill="none" stroke="currentColor" stroke-linecap="round" stroke-linejoin="round" stroke-width="1.5"></path>
    <path d="M22.809 5.559a1.5 1.5 0 0 1 0.44 1.06V21A2.25 2.25 0 0 1 21 23.248H3A2.25 2.25 0 0 1 0.749 21V3A2.25 2.25 0 0 1 3 0.748h14.377a1.5 1.5 0 0 1 1.061 0.439Z" fill="none" stroke="currentColor" stroke-linecap="round" stroke-linejoin="round" stroke-width="1.5"></path>
    <path d="M17.249 0.748v4.5a1.5 1.5 0 0 0 1.5 1.5h4.5" fill="none" stroke="currentColor" stroke-linecap="round" stroke-linejoin="round" stroke-width="1.5"></path>
  </symbol>

  <!-- Download Icon -->
  <symbol id="icon-download" viewBox="0 0 24 24">
    <path d="M8.25 14.25 12 18l3.75 -3.75" fill="none" stroke="currentColor" stroke-linecap="round" stroke-linejoin="round" stroke-width="1.5"></path>
    <path d="M12 6.75 12 18" fill="none" stroke="currentColor" stroke-linecap="round" stroke-linejoin="round" stroke-width="1.5"></path>
    <path d="M0.75 12a11.25 11.25 0 1 0 22.5 0 11.25 11.25 0 1 0 -22.5 0Z" fill="none" stroke="currentColor" stroke-linecap="round" stroke-linejoin="round" stroke-width="1.5"></path>
  </symbol>

  <!-- New Window Icon -->
  <symbol id="icon-new-window" viewBox="0 0 24 24">
    <path d="M14 3h7v7" fill="none" stroke="currentColor" stroke-linecap="round" stroke-linejoin="round" stroke-width="1.5"></path>
    <path d="M21 3l-9 9" fill="none" stroke="currentColor" stroke-linecap="round" stroke-linejoin="round" stroke-width="1.5"></path>
    <path d="M21 14v6a1 1 0 0 1 -1 1H4a1 1 0 0 1 -1 -1V4a1 1 0 0 1 1 -1h6" fill="none" stroke="currentColor" stroke-linecap="round" stroke-linejoin="round" stroke-width="1.5"></path>
  </symbol>

  <!-- Light Mode Icon -->
  <symbol id="icon-light" viewBox="0 0 24 24">
    <path d="M5.25 12a6.75 6.75 0 1 0 13.5 0 6.75 6.75 0 1 0 -13.5 0Z" fill="none" stroke="currentColor" stroke-linecap="round" stroke-linejoin="round" stroke-width="1.5"></path>
    <path d="m12 2.25 0 -1.5" fill="none" stroke="currentColor" stroke-linecap="round" stroke-linejoin="round" stroke-width="1.5"></path>
    <path d="m18.894 5.106 1.061 -1.061" fill="none" stroke="currentColor" stroke-linecap="round" stroke-linejoin="round" stroke-width="1.5"></path>
    <path d="m21.75 12 1.5 0" fill="none" stroke="currentColor" stroke-linecap="round" stroke-linejoin="round" stroke-width="1.5"></path>
    <path d="m18.894 18.894 1.061 1.061" fill="none" stroke="currentColor" stroke-linecap="round" stroke-linejoin="round" stroke-width="1.5"></path>
    <path d="m12 21.75 0 1.5" fill="none" stroke="currentColor" stroke-linecap="round" stroke-linejoin="round" stroke-width="1.5"></path>
    <path d="m5.106 18.894 -1.061 1.061" fill="none" stroke="currentColor" stroke-linecap="round" stroke-linejoin="round" stroke-width="1.5"></path>
    <path d="m2.25 12 -1.5 0" fill="none" stroke="currentColor" stroke-linecap="round" stroke-linejoin="round" stroke-width="1.5"></path>
    <path d="M5.106 5.106 4.045 4.045" fill="none" stroke="currentColor" stroke-linecap="round" stroke-linejoin="round" stroke-width="1.5"></path>
  </symbol>

  <!-- Dark Mode Icon -->
  <symbol id="icon-dark" viewBox="0 0 24 24">
    <path d="M13.266 2.253a9.75 9.75 0 1 1 -0.643 19.458" fill="none" stroke="currentColor" stroke-linecap="round" stroke-linejoin="round" stroke-width="1.5"></path>
    <path d="M0.75 12a7.5 7.5 0 1 0 15 0 7.5 7.5 0 1 0 -15 0Z" fill="none" stroke="currentColor" stroke-linecap="round" stroke-linejoin="round" stroke-width="1.5"></path>
    <path d="M9.311 4.575 0.825 13.061" fill="none" stroke="currentColor" stroke-linecap="round" stroke-linejoin="round" stroke-width="1.5"></path>
    <path d="M13.553 6.697 2.947 17.303" fill="none" stroke="currentColor" stroke-linecap="round" stroke-linejoin="round" stroke-width="1.5"></path>
    <path d="m15.675 10.939 -8.486 8.486" fill="none" stroke="currentColor" stroke-linecap="round" stroke-linejoin="round" stroke-width="1.5"></path>
  </symbol>

  <!-- System Mode Icon -->
  <symbol id="icon-system" viewBox="0 0 24 24">
    <path d="M5.5 12a6.5 6.5 0 1 0 13 0 6.5 6.5 0 1 0 -13 0" fill="none" stroke="currentColor" stroke-linecap="round" stroke-linejoin="round" stroke-width="1.5"></path>
    <path d="M12 2.93 12 1" fill="none" stroke="currentColor" stroke-linecap="round" stroke-linejoin="round" stroke-width="1.5"></path>
    <path d="m12 23 0 -1.93" fill="none" stroke="currentColor" stroke-linecap="round" stroke-linejoin="round" stroke-width="1.5"></path>
    <path d="M21.07 12 23 12" fill="none" stroke="currentColor" stroke-linecap="round" stroke-linejoin="round" stroke-width="1.5"></path>
    <path d="m1 12 1.93 0" fill="none" stroke="currentColor" stroke-linecap="round" stroke-linejoin="round" stroke-width="1.5"></path>
    <path d="m18.414 5.586 1.364 -1.364" fill="none" stroke="currentColor" stroke-linecap="round" stroke-linejoin="round" stroke-width="1.5"></path>
    <path d="m4.222 19.778 1.364 -1.364" fill="none" stroke="currentColor" stroke-linecap="round" stroke-linejoin="round" stroke-width="1.5"></path>
    <path d="m18.414 18.414 1.364 1.364" fill="none" stroke="currentColor" stroke-linecap="round" stroke-linejoin="round" stroke-width="1.5"></path>
    <path d="m4.222 4.222 1.364 1.364" fill="none" stroke="currentColor" stroke-linecap="round" stroke-linejoin="round" stroke-width="1.5"></path>
    <path d="M12.5 8.5v7a3.5 3.5 0 0 0 0 -7Z" fill="none" stroke="currentColor" stroke-linecap="round" stroke-linejoin="round" stroke-width="1.5"></path>
  </symbol>

  <!-- Mode Micro Icon -->
  <symbol id="icon-mode-micro" viewBox="0 0 10 10">
    <path d="M5 7.5c1.38071 0 2.5 -1.11929 2.5 -2.5S6.38071 2.5 5 2.5 2.5 3.61929 2.5 5 3.61929 7.5 5 7.5" fill="none" stroke="currentColor" stroke-linecap="round" stroke-linejoin="round" stroke-width="1"></path>
    <path d="M7.39508 5.71896C7.26639 5.73939 7.13443 5.75 7 5.75c-1.38071 0 -2.5 -1.11929 -2.5 -2.5 0 -0.24991 0.03667 -0.49126 0.10492 -0.71896C4.73361 2.51061 4.86557 2.5 5 2.5c1.38071 0 2.5 1.11929 2.5 2.5 0 0.24991 -0.03667 0.49126 -0.10492 0.71896" fill="none" stroke="currentColor" stroke-linecap="round" stroke-linejoin="round" stroke-width="1"></path>
    <path d="M5 0.5V1" fill="none" stroke="currentColor" stroke-linecap="round" stroke-linejoin="round" stroke-width="1"></path>
    <path d="m1.81799 1.81787 0.354 0.354" fill="none" stroke="currentColor" stroke-linecap="round" stroke-linejoin="round" stroke-width="1"></path>
    <path d="M0.5 5H1" fill="none" stroke="currentColor" stroke-linecap="round" stroke-linejoin="round" stroke-width="1"></path>
    <path d="m1.81799 8.18213 0.354 -0.35401" fill="none" stroke="currentColor" stroke-linecap="round" stroke-linejoin="round" stroke-width="1"></path>
    <path d="M5 9.5V9" fill="none" stroke="currentColor" stroke-linecap="round" stroke-linejoin="round" stroke-width="1"></path>
    <path d="m8.182 8.18213 -0.354 -0.35401" fill="none" stroke="currentColor" stroke-linecap="round" stroke-linejoin="round" stroke-width="1"></path>
    <path d="M9.5 5H9" fill="none" stroke="currentColor" stroke-linecap="round" stroke-linejoin="round" stroke-width="1"></path>
    <path d="m8.182 1.81787 -0.354 0.354" fill="none" stroke="currentColor" stroke-linecap="round" stroke-linejoin="round" stroke-width="1"></path>
  </symbol>

  <!-- Palette Micro Icon -->
  <symbol id="icon-palette-micro" viewBox="0 0 10 10">
    <path d="M5.45654 3.73975c0.47611 0 0.86206 -0.38596 0.86206 -0.86206 0 -0.47611 -0.38595 -0.86207 -0.86206 -0.86207 -0.4761 0 -0.86206 0.38596 -0.86206 0.86207 0 0.4761 0.38596 0.86206 0.86206 0.86206Z" fill="none" stroke="currentColor" stroke-linecap="round" stroke-linejoin="round" stroke-width="1"></path>
    <path d="M3.14014 5.79956c0.4761 0 0.86206 -0.38596 0.86206 -0.86206s-0.38596 -0.86206 -0.86206 -0.86206c-0.47611 0 -0.86206 0.38596 -0.86206 0.86206s0.38595 0.86206 0.86206 0.86206Z" fill="none" stroke="currentColor" stroke-linecap="round" stroke-linejoin="round" stroke-width="1"></path>
    <path d="M3.6604 7.42285c-0.06904 0 -0.125 -0.05596 -0.125 -0.125 0 -0.06903 0.05596 -0.125 0.125 -0.125" fill="none" stroke="currentColor" stroke-linecap="round" stroke-linejoin="round" stroke-width="1"></path>
    <path d="M3.6604 7.42285c0.06904 0 0.125 -0.05596 0.125 -0.125 0 -0.06903 -0.05596 -0.125 -0.125 -0.125" fill="none" stroke="currentColor" stroke-linecap="round" stroke-linejoin="round" stroke-width="1"></path>
    <path d="M6.74169 8.65537c-0.00771 -0.13429 -0.05438 -0.26342 -0.13429 -0.37161 -0.07992 -0.10819 -0.18962 -0.19076 -0.31571 -0.23762 -0.31312 -0.10292 -0.57927 -0.31416 -0.75057 -0.59575 -0.17131 -0.28159 -0.23655 -0.61506 -0.18399 -0.94044 0.05256 -0.32539 0.21948 -0.62136 0.47074 -0.83468 0.25125 -0.21333 0.57037 -0.33003 0.89998 -0.32912h1.29461c0.22204 0.00061 0.44098 -0.05218 0.63834 -0.15393 0.19736 -0.10175 0.36735 -0.24947 0.49564 -0.4307 0.12829 -0.18124 0.21111 -0.39067 0.24148 -0.61062 0.03036 -0.21996 0.00739 -0.444 -0.067 -0.65321 -0.27536 -0.77748 -0.7591 -1.46433 -1.39838 -1.9855C7.29326 0.991012 6.52303 0.655564 5.70602 0.54249 4.889 0.429416 4.05663 0.543065 3.29983 0.871021c-0.7568 0.327959 -1.40891 0.857599 -1.88508 1.531079 -0.476165 0.67347 -0.758077 1.46485 -0.814933 2.2877 -0.056856 0.82284 0.113531 1.64548 0.492543 2.37804 0.37902 0.73256 0.95208 1.34686 1.65658 1.77579 0.7045 0.42893 1.51334 0.65598 2.33814 0.65635 0.40733 0.00114 0.81281 -0.05479 1.20461 -0.16615 0.14391 -0.04032 0.26853 -0.13103 0.35114 -0.25557 0.0826 -0.12455 0.11769 -0.27463 0.09886 -0.42289v0Z" fill="none" stroke="currentColor" stroke-linecap="round" stroke-linejoin="round" stroke-width="1"></path>
  </symbol>

  <!-- Language Micro Icon -->
  <symbol id="icon-language-micro" viewBox="0 0 10 10">
    <path d="M9.5 9.5 7.25 5 5 9.5" fill="none" stroke="currentColor" stroke-linecap="round" stroke-linejoin="round" stroke-width="1"></path>
    <path d="M0.5 0.5h6" fill="none" stroke="currentColor" stroke-linecap="round" stroke-linejoin="round" stroke-width="1"></path>
    <path d="M6 0.5 1.5 6" fill="none" stroke="currentColor" stroke-linecap="round" stroke-linejoin="round" stroke-width="1"></path>
    <path d="m2.37 2.11 2.531 2.974" fill="none" stroke="currentColor" stroke-linecap="round" stroke-linejoin="round" stroke-width="1"></path>
    <path d="M5.5 8.5H9" fill="none" stroke="currentColor" stroke-linecap="round" stroke-linejoin="round" stroke-width="1"></path>
  </symbol>

  <!-- Arrow Left Icon -->
  <symbol id="icon-arrow-left" viewBox="0 0 24 24">
    <path d="M10.25 6.75L4.75 12l5.5 5.25" fill="none" stroke="currentColor" stroke-linecap="round" stroke-linejoin="round" stroke-width="1.5"></path>
    <path d="M19.25 12h-14" fill="none" stroke="currentColor" stroke-linecap="round" stroke-linejoin="round" stroke-width="1.5"></path>
  </symbol>

  <!-- Arrow Right Icon -->
  <symbol id="icon-arrow-right" viewBox="0 0 16 16">
    <path d="M15.9913 7.99983C15.9846 7.53983 15.7913 7.09983 15.4446 6.79983L7.98665 0.239835V0.233168C7.57331 -0.106832 6.96665 -0.046832 6.63331 0.366501C6.31331 0.753168 6.34665 1.3265 6.71331 1.6665L12.4666 6.73317C12.5333 6.79317 12.54 6.89317 12.48 6.9665C12.4466 6.99983 12.4 7.01983 12.3533 7.01983H0.93998C0.406647 7.01983 -0.0200195 7.4465 -0.0200195 7.97984C-0.0200195 8.5065 0.406647 8.93983 0.93998 8.93983H12.3473V8.93917C12.434 8.93917 12.5073 9.0125 12.5073 9.10584C12.5006 9.1525 12.4806 9.1925 12.4473 9.22583L6.68731 14.2925C6.27398 14.6192 6.20731 15.2258 6.54065 15.6392C6.86731 16.0458 7.47398 16.1125 7.88731 15.7792C7.90731 15.7592 7.92731 15.7392 7.94731 15.7258L15.4006 9.16583C15.7406 8.85917 15.9406 8.41917 15.9406 7.96584L15.9913 7.99983Z" fill="currentColor"/>
  </symbol>

  <!-- Language Icon -->
  <symbol id="icon-language" viewBox="0 0 24 24">
    <g fill="none" stroke="currentColor" stroke-linecap="round" stroke-linejoin="round" stroke-width="1.5">
      <polyline points="19.652 .748 15.902 2.998 18.152 6.748"></polyline>
      <path d="M23.25 8.187v0c-1.04-2.86-3.86-4.67-6.884-4.42"></path>
      <polyline points="4.348 23.248 8.098 20.998 5.848 17.248"></polyline>
      <path d="M.75 15.808H.749c1.03 2.85 3.85 4.66 6.88 4.41"></path>
      <rect width="12" height="12" x=".75" y=".748" rx="1.5"></rect>
      <path d="M15.75 11.24h6v0c.82 0 1.5.67 1.5 1.5v9 0c0 .82-.68 1.5-1.5 1.5h-9v0c-.83 0-1.5-.68-1.5-1.5v-6"></path>
      <path d="M15.75 20.24v-4.5 0c0-.83.67-1.5 1.5-1.5 .82 0 1.5.67 1.5 1.5v4.5"></path>
      <line x1="15.75" x2="18.75" y1="18.75" y2="18.75"></line>
      <line x1="6.75" x2="6.75" y1="3.75" y2="5.25"></line>
      <line x1="3.75" x2="9.75" y1="5.25" y2="5.25"></line>
      <path d="M8.25 5.248s-1.5 4.5-4.5 4.5"></path>
      <path d="M6.74 8.014l-.001-.001c.67 1.01 1.78 1.65 3 1.73"></path>
    </g>
  </symbol>
</svg>
