<svg xmlns="http://www.w3.org/2000/svg" fill="none" viewBox="0 0 24 24" id="Paginate-Filter-Picture--Streamline-Ultimate">
  <desc>
    Paginate Filter Picture Streamline Icon: https://streamlinehq.com
  </desc>
  <path stroke="currentColor" stroke-linecap="round" stroke-linejoin="round" d="M21.75 0.75H5.25c-0.82843 0 -1.5 0.67157 -1.5 1.5v16.5c0 0.8284 0.67157 1.5 1.5 1.5h16.5c0.8284 0 1.5 -0.6716 1.5 -1.5V2.25c0 -0.82843 -0.6716 -1.5 -1.5 -1.5Z" stroke-width="1.5"></path>
  <path stroke="currentColor" stroke-linecap="round" stroke-linejoin="round" d="M20.25 23.25h-18c-0.39782 0 -0.77936 -0.158 -1.06066 -0.4393C0.908035 22.5294 0.75 22.1478 0.75 21.75v-18" stroke-width="1.5"></path>
  <path stroke="currentColor" d="M8.625 7.49597c-0.20711 0 -0.375 -0.16789 -0.375 -0.375s0.16789 -0.375 0.375 -0.375" stroke-width="1.5"></path>
  <path stroke="currentColor" d="M8.625 7.49597c0.20711 0 0.375 -0.16789 0.375 -0.375s-0.16789 -0.375 -0.375 -0.375" stroke-width="1.5"></path>
  <path stroke="currentColor" stroke-linecap="round" stroke-linejoin="round" d="m20.25 15.746 -3.87 -5.83603c-0.0679 -0.10141 -0.1596 -0.1847 -0.267 -0.24262 -0.1074 -0.05791 -0.2273 -0.0887 -0.3494 -0.08969 -0.122 -0.00098 -0.2424 0.02786 -0.3508 0.08404 -0.1083 0.05617 -0.2013 0.13797 -0.2708 0.23827L13.147 12.75l-1.237 -0.989c-0.0812 -0.0649 -0.175 -0.1121 -0.2754 -0.1388 -0.1005 -0.0267 -0.2053 -0.0322 -0.308 -0.0162 -0.1027 0.016 -0.2009 0.0531 -0.2884 0.109 -0.0876 0.056 -0.1626 0.1295 -0.2202 0.216l-2.54603 3.815H20.25Z" stroke-width="1.5"></path>
</svg>