<?xml version="1.0" encoding="UTF-8"?><svg version="1.1" viewBox="0 0 24 24" xmlns="http://www.w3.org/2000/svg" class="a"><style>.b{stroke-linecap: round; stroke-width: 1.5; stroke: #000; fill: none; stroke-linejoin: round;}.a{}</style><line x1="12" x2="12" y1="5.25" y2=".75" class="b"/><line x1="7.23" x2="4.05" y1="7.23" y2="4.05" class="b"/><line x1="5.25" x2=".75" y1="12" y2="12" class="b"/><line x1="7.23" x2="4.05" y1="16.77" y2="19.95" class="b"/><line x1="12" x2="12" y1="18.75" y2="23.25" class="b"/><line x1="16.77" x2="19.95" y1="16.77" y2="19.95" class="b"/><line x1="18.75" x2="23.25" y1="12" y2="12" class="b"/><line x1="16.77" x2="19.95" y1="7.23" y2="4.05" class="b"/><circle cx="12" cy="12" r="6.75" class="b"/><path d="M15.75 15h0c-3.73-.01-6.76-3.03-6.76-6.76 0-.87.16-1.72.48-2.52v0C6 7.1 4.33 11.03 5.71 14.5c1.38 3.46 5.31 5.13 8.78 3.75 1.7-.69 3.06-2.05 3.75-3.76l-.001 0c-.8.32-1.66.48-2.52.48Z" class="b"/></svg>