<?xml version="1.0" encoding="utf-8"?>
<!-- Generator: Adobe Illustrator 19.2.1, SVG Export Plug-In . SVG Version: 6.00 Build 0)  -->
<svg version="1.1" id="Lager_1" xmlns="http://www.w3.org/2000/svg" xmlns:xlink="http://www.w3.org/1999/xlink" x="0px" y="0px"
	 viewBox="0 0 1920 1280" enable-background="new 0 0 1920 1280" xml:space="preserve">
<rect fill="#FFFFFF" width="1920" height="1280"/>
<g>
	<path d="M625.5,565.6v4.4c-1.3-0.8-2.6-1.5-4-1.9s-2.7-0.6-4-0.6c-2.1,0-3.7,0.5-4.9,1.4c-1.2,1-1.8,2.2-1.8,3.9
		c0,1.4,0.4,2.5,1.2,3.3c0.8,0.7,2.2,1.4,4.4,1.9l2.3,0.5c3,0.7,5.2,1.8,6.6,3.3c1.4,1.5,2.1,3.6,2.1,6.2c0,3.1-0.9,5.4-2.8,7
		c-1.9,1.6-4.7,2.4-8.3,2.4c-1.5,0-3-0.2-4.5-0.5s-3.1-0.8-4.6-1.5v-4.6c1.7,1,3.2,1.8,4.7,2.3c1.5,0.5,3,0.7,4.4,0.7
		c2.2,0,3.9-0.5,5.1-1.5c1.2-1,1.8-2.4,1.8-4.1c0-1.6-0.4-2.8-1.3-3.7c-0.8-0.8-2.3-1.5-4.4-2l-2.3-0.5c-3-0.7-5.2-1.7-6.5-3.1
		c-1.4-1.4-2-3.2-2-5.5c0-2.9,1-5.2,2.9-6.9c1.9-1.7,4.5-2.6,7.7-2.6c1.2,0,2.5,0.1,3.9,0.4C622.5,564.6,624,565,625.5,565.6z"/>
	<path d="M633.2,564.5h4.4v14.3l13.6-14.3h5.1l-12.5,13.1l12.9,19h-5.3l-10.5-16.1l-3.3,3.5v12.6h-4.4V564.5z"/>
	<path d="M657.6,564.5h4.6l7.8,14.2l7.8-14.2h4.7l-10.3,17.7v14.4h-4.4v-14.4L657.6,564.5z"/>
	<path d="M715,564.5h18.9v3.7h-14.6v9.5h13.2v3.7h-13.2v15.4H715V564.5z"/>
	<path d="M740.8,564.5h17.9v3.7h-6.7V593h6.7v3.7h-17.9V593h6.7v-24.8h-6.7V564.5z"/>
	<path d="M767.7,564.5h4.4V593h15.5v3.7h-19.9V564.5z"/>
	<path d="M794.3,564.5h4.4V593h15.5v3.7h-19.9V564.5z"/>
	<path d="M820.4,564.5h19.1v3.7h-14.7v9.5h14.1v3.7h-14.1V593h15.1v3.7h-19.5V564.5z"/>
	<path d="M852.2,564.5c4.9,0,8.5,1.3,10.9,3.9c2.3,2.6,3.5,6.7,3.5,12.2c0,5.5-1.2,9.5-3.5,12.1c-2.3,2.6-5.9,3.9-10.9,3.9h-6.5
		v-32.2H852.2z M852.1,593.1c3.7,0,6.2-0.9,7.7-2.7c1.5-1.8,2.2-5.1,2.2-9.8c0-4.8-0.7-8-2.2-9.8s-4-2.7-7.7-2.7h-2.1v25H852.1z"/>
	<path d="M895.9,564.5h4.2l3.1,26.1l3.7-17.3h4.5l3.7,17.3l3.1-26.2h4.2l-4.8,32.2h-4.1l-4.4-19.1l-4.4,19.1h-4.1L895.9,564.5z"/>
	<path d="M926.8,564.5h17.9v3.7h-6.7V593h6.7v3.7h-17.9V593h6.7v-24.8h-6.7V564.5z"/>
	<path d="M950,564.5h24.5v3.7h-10.1v28.5h-4.4v-28.5H950V564.5z"/>
	<path d="M978.5,564.5h4.4v13.2h11.9v-13.2h4.4v32.2h-4.4v-15.3h-11.9v15.3h-4.4V564.5z"/>
	<path d="M1052.5,594c-1.2,1.1-2.5,1.9-3.9,2.4s-3,0.8-4.7,0.8c-4.1,0-7.3-1.5-9.5-4.4c-2.3-2.9-3.4-7-3.4-12.3
		c0-5.3,1.1-9.4,3.4-12.3c2.3-2.9,5.5-4.4,9.6-4.4c1.3,0,2.6,0.2,3.9,0.6s2.4,1,3.6,1.7v4.5c-1.2-1.1-2.4-1.9-3.6-2.4
		c-1.2-0.5-2.5-0.8-3.9-0.8c-2.8,0-5,1.1-6.4,3.3c-1.4,2.2-2.1,5.5-2.1,9.9c0,4.5,0.7,7.8,2.1,9.9c1.4,2.1,3.5,3.2,6.3,3.2
		c1,0,1.8-0.1,2.5-0.3c0.7-0.2,1.4-0.6,2-1v-8.6h-4.7v-3.6h8.8V594z"/>
	<path d="M1059.9,564.5h4.4V593h15.5v3.7h-19.9V564.5z"/>
	<path d="M1105.9,580.6c0,5.6-0.9,9.8-2.7,12.5c-1.8,2.8-4.5,4.1-8.1,4.1s-6.3-1.4-8.1-4.1s-2.7-6.9-2.7-12.6
		c0-5.6,0.9-9.8,2.7-12.6c1.8-2.8,4.5-4.1,8.1-4.1c3.6,0,6.3,1.4,8.1,4.1C1105,570.8,1105.9,575,1105.9,580.6z M1101.3,580.6
		c0-4.7-0.5-8.1-1.5-10.1c-1-2-2.6-3-4.8-3c-2.2,0-3.8,1-4.8,3c-1,2-1.5,5.4-1.5,10.1c0,4.7,0.5,8.1,1.5,10.1c1,2,2.6,3,4.8,3
		c2.2,0,3.8-1,4.8-3C1100.8,588.7,1101.3,585.3,1101.3,580.6z"/>
	<path d="M1124.8,581.5c1.1,0.3,2.1,0.8,2.9,1.6c0.8,0.8,1.8,2.4,3,4.8l4.4,8.8h-4.7l-3.8-8.1c-1.1-2.3-2.1-3.8-3-4.5
		c-0.9-0.7-2-1-3.5-1h-4.2v13.6h-4.4v-32.2h9c3.5,0,6.2,0.8,8.1,2.4c1.9,1.6,2.8,3.9,2.8,6.9c0,2.1-0.6,3.9-1.7,5.2
		S1126.9,581.2,1124.8,581.5z M1115.8,568.1v11.4h4.8c2.1,0,3.6-0.5,4.7-1.4c1-0.9,1.5-2.4,1.5-4.3c0-1.9-0.5-3.3-1.6-4.3
		c-1.1-1-2.7-1.5-4.7-1.5H1115.8z"/>
	<path d="M1135.8,564.5h4.6l7.8,14.2l7.8-14.2h4.7l-10.3,17.7v14.4h-4.4v-14.4L1135.8,564.5z"/>
	<path d="M1211.2,595.5c-1.1,0.6-2.2,1-3.4,1.3c-1.2,0.3-2.4,0.4-3.7,0.4c-4.1,0-7.3-1.5-9.6-4.4c-2.3-2.9-3.4-7-3.4-12.3
		c0-5.3,1.1-9.4,3.4-12.3s5.5-4.4,9.6-4.4c1.3,0,2.5,0.1,3.7,0.4c1.2,0.3,2.3,0.7,3.4,1.3v4.5c-1.1-0.9-2.2-1.5-3.4-2
		c-1.2-0.5-2.4-0.7-3.7-0.7c-2.8,0-4.9,1.1-6.4,3.3c-1.4,2.2-2.1,5.5-2.1,9.9c0,4.4,0.7,7.7,2.1,9.9c1.4,2.2,3.5,3.3,6.4,3.3
		c1.3,0,2.5-0.2,3.7-0.7s2.3-1.1,3.4-2V595.5z"/>
	<path d="M1217.6,564.5h4.4v13.2h11.9v-13.2h4.4v32.2h-4.4v-15.3H1222v15.3h-4.4V564.5z"/>
	<path d="M1265.3,580.6c0,5.6-0.9,9.8-2.7,12.5c-1.8,2.8-4.5,4.1-8.1,4.1s-6.3-1.4-8.1-4.1s-2.6-6.9-2.6-12.6
		c0-5.6,0.9-9.8,2.7-12.6c1.8-2.8,4.5-4.1,8.1-4.1c3.6,0,6.3,1.4,8.1,4.1C1264.4,570.8,1265.3,575,1265.3,580.6z M1260.7,580.6
		c0-4.7-0.5-8.1-1.5-10.1s-2.6-3-4.8-3c-2.2,0-3.8,1-4.8,3s-1.5,5.4-1.5,10.1c0,4.7,0.5,8.1,1.5,10.1s2.6,3,4.8,3c2.2,0,3.8-1,4.8-3
		C1260.2,588.7,1260.7,585.3,1260.7,580.6z"/>
	<path d="M1284.1,581.5c1.1,0.3,2.1,0.8,2.9,1.6c0.8,0.8,1.8,2.4,3,4.8l4.4,8.8h-4.7l-3.8-8.1c-1.1-2.3-2.1-3.8-3-4.5
		c-0.9-0.7-2-1-3.5-1h-4.2v13.6h-4.4v-32.2h9c3.5,0,6.2,0.8,8.1,2.4c1.9,1.6,2.8,3.9,2.8,6.9c0,2.1-0.6,3.9-1.7,5.2
		S1286.2,581.2,1284.1,581.5z M1275.2,568.1v11.4h4.8c2.1,0,3.6-0.5,4.7-1.4c1-0.9,1.5-2.4,1.5-4.3c0-1.9-0.5-3.3-1.6-4.3
		c-1.1-1-2.7-1.5-4.7-1.5H1275.2z"/>
	<path d="M1303.8,564.5c4.9,0,8.5,1.3,10.9,3.9c2.3,2.6,3.5,6.7,3.5,12.2c0,5.5-1.2,9.5-3.5,12.1c-2.3,2.6-5.9,3.9-10.9,3.9h-6.5
		v-32.2H1303.8z M1303.7,593.1c3.7,0,6.2-0.9,7.7-2.7c1.5-1.8,2.2-5.1,2.2-9.8c0-4.8-0.7-8-2.2-9.8s-4-2.7-7.7-2.7h-2.1v25H1303.7z"
		/>
	<path d="M1342.7,565.6v4.4c-1.3-0.8-2.6-1.5-4-1.9s-2.7-0.6-4-0.6c-2.1,0-3.7,0.5-4.9,1.4c-1.2,1-1.8,2.2-1.8,3.9
		c0,1.4,0.4,2.5,1.2,3.3c0.8,0.7,2.2,1.4,4.4,1.9l2.3,0.5c3,0.7,5.2,1.8,6.6,3.3c1.4,1.5,2.1,3.6,2.1,6.2c0,3.1-0.9,5.4-2.8,7
		c-1.9,1.6-4.7,2.4-8.3,2.4c-1.5,0-3-0.2-4.5-0.5s-3.1-0.8-4.6-1.5v-4.6c1.7,1,3.2,1.8,4.7,2.3c1.5,0.5,3,0.7,4.4,0.7
		c2.2,0,3.9-0.5,5.1-1.5c1.2-1,1.8-2.4,1.8-4.1c0-1.6-0.4-2.8-1.3-3.7c-0.8-0.8-2.3-1.5-4.4-2l-2.3-0.5c-3-0.7-5.2-1.7-6.5-3.1
		c-1.4-1.4-2-3.2-2-5.5c0-2.9,1-5.2,2.9-6.9c1.9-1.7,4.5-2.6,7.7-2.6c1.2,0,2.5,0.1,3.9,0.4C1339.8,564.6,1341.2,565,1342.7,565.6z"
		/>
	<path d="M1358,590.1h5.4v6.6h-5.4V590.1z"/>
</g>
<g>
	<path d="M607.3,652.7h9.5c3.3,0,5.8,0.7,7.6,2.1c1.8,1.4,2.7,3.4,2.7,6c0,2-0.5,3.5-1.4,4.7c-0.9,1.1-2.4,1.8-4.2,2.1
		c2.1,0.3,3.8,1.2,5,2.7s1.8,3.4,1.8,5.7c0,2.9-1,5.1-2.9,6.6c-1.9,1.5-4.8,2.2-8.5,2.2h-9.5V652.7z M611.6,656.3v9.7h5.1
		c2.1,0,3.6-0.4,4.6-1.2c0.9-0.8,1.4-2.1,1.4-3.9c0-1.6-0.5-2.8-1.4-3.5c-0.9-0.7-2.5-1.1-4.6-1.1H611.6z M611.6,669.5v11.8h5.1
		c2.5,0,4.3-0.4,5.4-1.3c1.1-0.9,1.6-2.3,1.6-4.4c0-2.1-0.6-3.6-1.7-4.6c-1.1-1-2.9-1.5-5.3-1.5H611.6z"/>
	<path d="M634.9,652.7h4.4v28.5h15.5v3.7h-19.9V652.7z"/>
	<path d="M667.5,652.7h5.3l9.8,32.2h-4.5l-2.4-8.4h-11.3l-2.3,8.4h-4.5L667.5,652.7z M670.1,656.6l-4.6,16.5h9.2L670.1,656.6z"/>
	<path d="M706.5,683.8c-1.1,0.6-2.2,1-3.4,1.3c-1.2,0.3-2.4,0.4-3.7,0.4c-4.1,0-7.3-1.5-9.6-4.4c-2.3-2.9-3.4-7-3.4-12.3
		c0-5.3,1.1-9.4,3.4-12.3s5.5-4.4,9.6-4.4c1.3,0,2.5,0.1,3.7,0.4c1.2,0.3,2.3,0.7,3.4,1.3v4.5c-1.1-0.9-2.2-1.5-3.4-2
		c-1.2-0.5-2.4-0.7-3.7-0.7c-2.8,0-4.9,1.1-6.4,3.3c-1.4,2.2-2.1,5.5-2.1,9.9c0,4.4,0.7,7.7,2.1,9.9c1.4,2.2,3.5,3.3,6.4,3.3
		c1.3,0,2.5-0.2,3.7-0.7c1.2-0.5,2.3-1.1,3.4-2V683.8z"/>
	<path d="M712.9,652.7h4.4V667l13.6-14.3h5.1l-12.5,13.1l12.9,19h-5.3l-10.5-16.1l-3.3,3.5v12.6h-4.4V652.7z"/>
	<path d="M766.6,652.7h9.5c3.3,0,5.8,0.7,7.6,2.1c1.8,1.4,2.7,3.4,2.7,6c0,2-0.5,3.5-1.4,4.7c-0.9,1.1-2.4,1.8-4.2,2.1
		c2.1,0.3,3.8,1.2,5,2.7c1.2,1.5,1.8,3.4,1.8,5.7c0,2.9-1,5.1-2.9,6.6c-1.9,1.5-4.8,2.2-8.5,2.2h-9.5V652.7z M771,656.3v9.7h5.1
		c2.1,0,3.6-0.4,4.6-1.2c0.9-0.8,1.4-2.1,1.4-3.9c0-1.6-0.5-2.8-1.4-3.5c-0.9-0.7-2.5-1.1-4.6-1.1H771z M771,669.5v11.8h5.1
		c2.5,0,4.3-0.4,5.4-1.3c1.1-0.9,1.6-2.3,1.6-4.4c0-2.1-0.6-3.6-1.7-4.6c-1.1-1-2.9-1.5-5.3-1.5H771z"/>
	<path d="M794,652.7h17.9v3.7h-6.7v24.8h6.7v3.7H794v-3.7h6.7v-24.8H794V652.7z"/>
	<path d="M832.6,669.7c1.1,0.3,2.1,0.8,2.9,1.6c0.8,0.8,1.8,2.4,3,4.8l4.4,8.8h-4.7l-3.8-8.1c-1.1-2.3-2.1-3.8-3-4.5
		c-0.9-0.7-2-1-3.5-1h-4.2v13.6h-4.4v-32.2h9c3.5,0,6.2,0.8,8.1,2.4c1.9,1.6,2.8,3.9,2.8,6.9c0,2.1-0.6,3.9-1.7,5.2
		S834.7,669.4,832.6,669.7z M823.6,656.3v11.4h4.8c2.1,0,3.6-0.5,4.7-1.4c1-0.9,1.5-2.4,1.5-4.3c0-1.9-0.5-3.3-1.6-4.3
		c-1.1-1-2.7-1.5-4.7-1.5H823.6z"/>
	<path d="M852.2,652.7c4.9,0,8.5,1.3,10.9,3.9c2.3,2.6,3.5,6.7,3.5,12.2c0,5.5-1.2,9.5-3.5,12.1c-2.3,2.6-5.9,3.9-10.9,3.9h-6.5
		v-32.2H852.2z M852.1,681.3c3.7,0,6.2-0.9,7.7-2.7c1.5-1.8,2.2-5.1,2.2-9.8c0-4.8-0.7-8-2.2-9.8s-4-2.7-7.7-2.7h-2.1v25H852.1z"/>
	<path d="M891.1,653.8v4.4c-1.3-0.8-2.6-1.5-4-1.9c-1.3-0.4-2.7-0.6-4-0.6c-2.1,0-3.7,0.5-4.9,1.4c-1.2,1-1.8,2.2-1.8,3.9
		c0,1.4,0.4,2.5,1.2,3.3c0.8,0.7,2.2,1.4,4.4,1.9l2.3,0.5c3,0.7,5.2,1.8,6.6,3.3c1.4,1.5,2.1,3.6,2.1,6.2c0,3.1-0.9,5.4-2.8,7
		c-1.9,1.6-4.7,2.4-8.3,2.4c-1.5,0-3-0.2-4.5-0.5s-3.1-0.8-4.6-1.5V679c1.7,1,3.2,1.8,4.7,2.3s3,0.7,4.4,0.7c2.2,0,3.9-0.5,5.1-1.5
		c1.2-1,1.8-2.4,1.8-4.1c0-1.6-0.4-2.8-1.3-3.7c-0.8-0.8-2.3-1.5-4.4-2l-2.3-0.5c-3-0.7-5.2-1.7-6.5-3.1c-1.3-1.4-2-3.2-2-5.5
		c0-2.9,1-5.2,2.9-6.9c1.9-1.7,4.5-2.6,7.7-2.6c1.2,0,2.5,0.1,3.9,0.4C888.2,652.9,889.6,653.3,891.1,653.8z"/>
	<path d="M906.4,678.3h5.4v6.6h-5.4V678.3z"/>
	<path d="M952.6,652.7h9.5c3.3,0,5.8,0.7,7.6,2.1c1.8,1.4,2.7,3.4,2.7,6c0,2-0.5,3.5-1.4,4.7c-0.9,1.1-2.4,1.8-4.2,2.1
		c2.1,0.3,3.8,1.2,5,2.7c1.2,1.5,1.8,3.4,1.8,5.7c0,2.9-1,5.1-2.9,6.6c-1.9,1.5-4.8,2.2-8.5,2.2h-9.5V652.7z M957,656.3v9.7h5.1
		c2.1,0,3.6-0.4,4.6-1.2c0.9-0.8,1.4-2.1,1.4-3.9c0-1.6-0.5-2.8-1.4-3.5c-0.9-0.7-2.5-1.1-4.6-1.1H957z M957,669.5v11.8h5.1
		c2.5,0,4.3-0.4,5.4-1.3c1.1-0.9,1.6-2.3,1.6-4.4c0-2.1-0.6-3.6-1.7-4.6c-1.1-1-2.9-1.5-5.3-1.5H957z"/>
	<path d="M979.9,652.7h17.9v3.7H991v24.8h6.7v3.7h-17.9v-3.7h6.7v-24.8h-6.7V652.7z"/>
	<path d="M1018.5,669.7c1.1,0.3,2.1,0.8,2.9,1.6c0.8,0.8,1.8,2.4,3,4.8l4.4,8.8h-4.7l-3.8-8.1c-1.1-2.3-2.1-3.8-3-4.5
		c-0.9-0.7-2-1-3.5-1h-4.2v13.6h-4.4v-32.2h9c3.5,0,6.2,0.8,8.1,2.4c1.9,1.6,2.8,3.9,2.8,6.9c0,2.1-0.6,3.9-1.7,5.2
		S1020.6,669.4,1018.5,669.7z M1009.6,656.3v11.4h4.8c2.1,0,3.6-0.5,4.7-1.4c1-0.9,1.5-2.4,1.5-4.3c0-1.9-0.5-3.3-1.6-4.3
		c-1.1-1-2.7-1.5-4.7-1.5H1009.6z"/>
	<path d="M1038.2,652.7c4.9,0,8.5,1.3,10.9,3.9c2.3,2.6,3.5,6.7,3.5,12.2c0,5.5-1.2,9.5-3.5,12.1c-2.3,2.6-5.9,3.9-10.9,3.9h-6.5
		v-32.2H1038.2z M1038.1,681.3c3.7,0,6.2-0.9,7.7-2.7c1.5-1.8,2.2-5.1,2.2-9.8c0-4.8-0.7-8-2.2-9.8s-4-2.7-7.7-2.7h-2.1v25H1038.1z"
		/>
	<path d="M1077.1,653.8v4.4c-1.3-0.8-2.6-1.5-4-1.9c-1.3-0.4-2.7-0.6-4-0.6c-2.1,0-3.7,0.5-4.9,1.4c-1.2,1-1.8,2.2-1.8,3.9
		c0,1.4,0.4,2.5,1.2,3.3c0.8,0.7,2.2,1.4,4.4,1.9l2.3,0.5c3,0.7,5.2,1.8,6.6,3.3c1.4,1.5,2.1,3.6,2.1,6.2c0,3.1-0.9,5.4-2.8,7
		c-1.9,1.6-4.7,2.4-8.3,2.4c-1.5,0-3-0.2-4.5-0.5s-3.1-0.8-4.6-1.5V679c1.7,1,3.2,1.8,4.7,2.3s3,0.7,4.4,0.7c2.2,0,3.9-0.5,5.1-1.5
		c1.2-1,1.8-2.4,1.8-4.1c0-1.6-0.4-2.8-1.3-3.7c-0.8-0.8-2.3-1.5-4.4-2l-2.3-0.5c-3-0.7-5.2-1.7-6.5-3.1c-1.3-1.4-2-3.2-2-5.5
		c0-2.9,1-5.2,2.9-6.9c1.9-1.7,4.5-2.6,7.7-2.6c1.2,0,2.5,0.1,3.9,0.4C1074.1,652.9,1075.6,653.3,1077.1,653.8z"/>
	<path d="M1113.4,652.7h18.9v3.7h-14.6v9.5h13.2v3.7h-13.2v15.4h-4.4V652.7z"/>
	<path d="M1145.6,652.7h5.3l9.8,32.2h-4.5l-2.4-8.4h-11.3l-2.3,8.4h-4.5L1145.6,652.7z M1148.2,656.6l-4.6,16.5h9.2L1148.2,656.6z"
		/>
	<path d="M1166.2,652.7h4.4v28.5h15.5v3.7h-19.9V652.7z"/>
	<path d="M1192.7,652.7h4.4v28.5h15.5v3.7h-19.9V652.7z"/>
	<path d="M1225.2,678.3h5.4v6.6h-5.4V678.3z"/>
</g>
</svg>
